<?xml version="1.0" encoding="utf-8"?>
<!-- Generator: Adobe Illustrator 18.1.1, SVG Export Plug-In . SVG Version: 6.00 Build 0)  -->
<svg version="1.1" id="Layer_1" xmlns:sketch="http://www.bohemiancoding.com/sketch/ns"
	 xmlns="http://www.w3.org/2000/svg" xmlns:xlink="http://www.w3.org/1999/xlink" x="0px" y="0px" viewBox="198 153 1188 308"
	 enable-background="new 198 153 1188 308" xml:space="preserve">
<title>Imported Layers</title>
<desc>Created with Sketch.</desc>
<g>
	<path id="Fill-1" sketch:type="MSShapeGroup" stroke="#FFFFFF" stroke-miterlimit="10" d="M573,180.2h62.4c8.7,0,17.1,0.9,25.2,2.7
		c8.1,1.8,15.3,4.7,21.6,8.9c6.3,4.1,11.3,9.6,15.1,16.3c3.7,6.7,5.6,15,5.6,24.9c0,11.4-3.2,21.3-9.6,29.4
		c-6.4,8.2-15.5,13.7-27.4,16.4v0.6c14.8,1.2,26.4,6.4,34.8,15.5c8.4,9.2,12.6,21.5,12.6,36.8c0,3.4-0.8,8.3-2.5,14.8
		c-1.7,6.5-5.2,13-10.5,19.4c-5.3,6.4-13,12-23.1,16.7c-10.1,4.7-23.5,7.1-40.2,7.1H573V180.2L573,180.2z M594.3,271.9h42.9
		c5.1,0,10.2-0.6,15.2-1.9c5-1.3,9.6-3.4,13.6-6.4c4-3,7.3-6.8,9.9-11.4c2.6-4.6,3.8-10.3,3.8-17c0-2.2-0.4-5.2-1.3-9.2
		c-0.9-3.9-2.9-7.9-5.9-11.8c-3.1-3.9-7.5-7.3-13.5-10.2c-5.9-2.9-13.9-4.3-24-4.3h-40.8V271.9L594.3,271.9z M594.3,370.2h40.8
		c7.7,0,14.9-0.8,21.6-2.4c6.7-1.6,12.5-4,17.5-7.2c4.9-3.3,8.8-7.3,11.7-12.3c2.9-4.9,4.3-10.8,4.3-17.8c0-13.8-4.4-24.1-13.3-30.8
		c-8.9-6.7-21.9-10.1-39.1-10.1h-43.5V370.2L594.3,370.2z"/>
	<path id="Fill-2" sketch:type="MSShapeGroup" stroke="#FFFFFF" stroke-miterlimit="10" d="M747.5,294.4c0-6.1-0.1-12.3-0.4-18.6
		c-0.3-6.3-0.5-14.5-0.7-24.6h19.2V277h0.6c1.4-3.8,3.4-7.3,5.9-10.8c2.6-3.5,5.7-6.6,9.3-9.3c3.6-2.8,7.9-5,12.7-6.7
		c4.8-1.7,10.3-2.5,16.4-2.5c5.5,0,10.4,0.6,14.5,1.8l-3.8,19.2c-2.6-1-6.3-1.5-11.2-1.5c-7.5,0-13.9,1.4-19.2,4.3
		c-5.3,2.9-9.8,6.5-13.3,11c-3.6,4.4-6.2,9.2-7.8,14.4c-1.7,5.1-2.5,10.1-2.5,14.8v78.1h-19.5V294.4"/>
	<path id="Fill-3" sketch:type="MSShapeGroup" stroke="#FFFFFF" stroke-miterlimit="10" d="M869.6,197.9c0,4.1-1.5,7.5-4.4,10.2
		c-3,2.7-6.2,4-9.8,4s-6.8-1.3-9.8-4c-3-2.7-4.4-6.1-4.4-10.2c0-4.1,1.5-7.5,4.4-10.2c3-2.7,6.2-4,9.8-4s6.8,1.3,9.8,4
		C868.1,190.4,869.6,193.8,869.6,197.9L869.6,197.9z M845.6,251.2h19.5v138.5h-19.5V251.2z"/>
	<g id="Group-8" transform="translate(698.000000, 12.000000)" sketch:type="MSShapeGroup">
		<path id="Fill-4" stroke="#FFFFFF" stroke-miterlimit="10" d="M345.9,377.7h-19.5v-23.1h-0.6c-3.2,4.7-6.9,8.8-11.2,12.1
			c-4.3,3.4-8.9,6.1-13.6,8.3c-4.7,2.2-9.6,3.7-14.7,4.7c-5,1-9.8,1.5-14.4,1.5c-10.9,0-20.8-1.8-29.7-5.5
			c-9-3.7-16.7-8.7-23.2-15.2c-6.5-6.5-11.6-14.2-15.2-23.1c-3.7-8.9-5.5-18.5-5.5-29c0-10.5,1.8-20.1,5.5-29
			c3.6-8.9,8.7-16.6,15.2-23.1c6.5-6.5,14.3-11.6,23.2-15.2c9-3.6,18.9-5.5,29.7-5.5c4.5,0,9.3,0.5,14.4,1.5c5,1,9.9,2.6,14.7,4.7
			c4.7,2.2,9.3,4.9,13.6,8.3c4.3,3.4,8.1,7.4,11.2,12.1h0.6V154h19.5V377.7L345.9,377.7z M219.5,308.5c0,7.7,1.2,14.9,3.7,21.6
			c2.5,6.7,6,12.5,10.5,17.5c4.5,4.9,10,8.8,16.4,11.7c6.4,2.9,13.7,4.3,21.8,4.3c7.9,0,15.2-1.4,22-4.3c6.8-2.9,12.7-6.8,17.6-11.7
			c4.9-4.9,8.8-10.8,11.5-17.5c2.8-6.7,4.1-13.9,4.1-21.6c0-7.7-1.4-14.9-4.1-21.6c-2.8-6.7-6.6-12.5-11.5-17.5
			c-4.9-4.9-10.8-8.8-17.6-11.7c-6.8-2.9-14.2-4.3-22-4.3c-8.1,0-15.3,1.4-21.8,4.3c-6.4,2.9-11.9,6.8-16.4,11.7
			c-4.5,4.9-8,10.8-10.5,17.5C220.7,293.6,219.5,300.8,219.5,308.5L219.5,308.5z"/>
		<path id="Fill-6" stroke="#FFFFFF" stroke-miterlimit="10" d="M394.3,405.5c5.7,7.7,13.2,13.9,22.3,18.5c9.2,4.6,19.4,7,30.6,7
			c9.9,0,18.2-1.4,25.2-4.3c6.9-2.9,12.5-6.8,16.7-11.7c4.2-4.9,7.3-10.7,9.2-17.3c1.9-6.6,2.8-13.7,2.8-21.2v-24.9h-0.6
			c-6.3,9.5-14,16.2-23.1,20.1c-9.1,3.9-18.6,5.9-28.7,5.9c-10.1,0-19.5-1.8-28.3-5.3c-8.8-3.6-16.4-8.4-22.9-14.6
			c-6.5-6.2-11.6-13.7-15.4-22.3c-3.8-8.7-5.6-18.1-5.6-28.1s1.8-19.4,5.3-28.1c3.6-8.7,8.4-16.3,14.6-22.8
			c6.2-6.5,13.6-11.6,22.2-15.2c8.6-3.6,18-5.5,28.3-5.5c4.1,0,8.5,0.4,13.2,1.2c4.6,0.8,9.3,2.2,13.9,4.1c4.6,2,9.2,4.7,13.8,8.1
			c4.5,3.5,8.8,7.8,12.7,13.2h0.6v-23.1h19.5v137.3c0,7.5-0.9,15.5-2.8,24c-1.9,8.5-5.5,16.3-10.9,23.4c-5.4,7.1-13,13-22.6,17.8
			c-9.7,4.7-22.3,7.1-37.9,7.1c-13.8,0-26.1-2.3-37-6.8c-10.9-4.5-20.7-11.5-29.6-21L394.3,405.5L394.3,405.5z M397.8,306.7
			c0,7.3,1.3,14.2,4,20.6c2.7,6.4,6.3,12,11,16.9c4.6,4.8,10.1,8.7,16.3,11.5c6.2,2.9,13,4.3,20.3,4.3c7.1,0,13.9-1.3,20.3-3.9
			c6.4-2.6,12.1-6.2,17-10.8c4.9-4.6,8.7-10.2,11.4-16.7c2.7-6.5,3.9-13.8,3.7-21.9c0-7.3-1.2-14.2-3.5-20.6
			c-2.4-6.4-5.8-12-10.4-16.9c-4.5-4.8-10.1-8.7-16.6-11.5c-6.5-2.9-13.8-4.3-21.9-4.3c-7.3,0-14.1,1.4-20.3,4.3
			c-6.2,2.9-11.6,6.7-16.3,11.5c-4.6,4.8-8.3,10.5-11,16.9C399.2,292.5,397.8,299.4,397.8,306.7L397.8,306.7z"/>
		<path id="Fill-7" stroke="#FFFFFF" stroke-miterlimit="10" d="M572.4,313.8c0.6,6.9,2.3,13.4,5,19.5c2.8,6.1,6.4,11.4,10.9,15.8
			c4.5,4.4,9.8,7.9,15.7,10.5c5.9,2.6,12.3,3.8,19.2,3.8c10.5,0,19.5-2.4,27.1-7.3c7.6-4.8,13.4-10.4,17.3-16.7l15.1,12.4
			c-8.3,10.5-17.4,18-27.4,22.5c-10,4.5-20.7,6.8-32.1,6.8c-10.3,0-19.8-1.8-28.6-5.5c-8.8-3.7-16.3-8.7-22.6-15.2
			c-6.3-6.5-11.3-14.2-14.9-23.1c-3.7-8.9-5.5-18.5-5.5-29s1.8-20.1,5.3-29c3.6-8.9,8.5-16.6,14.8-23.1c6.3-6.5,13.7-11.6,22.2-15.2
			c8.5-3.6,17.7-5.5,27.5-5.5c10.5,0,19.8,1.9,28.1,5.6c8.3,3.8,15.2,8.7,20.9,14.9c5.6,6.2,9.9,13.5,12.9,21.9
			c3,8.4,4.4,17.3,4.4,26.8v8.9H572.4L572.4,313.8z M666.5,297.8c0-13.2-3.9-23.9-11.8-32.1c-7.9-8.2-18.9-12.3-33.1-12.3
			c-6.3,0-12.4,1.2-18.3,3.7c-5.9,2.5-11.1,5.8-15.5,9.9c-4.4,4.1-8,8.9-10.7,14.2c-2.7,5.3-4,10.8-4,16.6H666.5L666.5,297.8z"/>
	</g>
	<g>
		<polygon fill="#201D1D" points="198,153 198,206.8 275.2,256.2 403.5,256.2 486,206.6 486,153.2 484.9,154.9 390.7,213.2 
			288,213.2 		"/>
		<polygon fill="#201D1D" points="288,346.6 390.7,346.6 484.9,404.9 486,406.7 486,353.3 403.5,303.6 275.2,303.6 198,353 
			198,406.8 		"/>
	</g>
</g>
</svg>
