<?xml version="1.0" encoding="UTF-8" standalone="no"?>
<svg width="1181px" height="303px" viewBox="0 0 1181 303" version="1.1" xmlns="http://www.w3.org/2000/svg" xmlns:xlink="http://www.w3.org/1999/xlink" xmlns:sketch="http://www.bohemiancoding.com/sketch/ns">
    <!-- Generator: Sketch 3.3.3 (12081) - http://www.bohemiancoding.com/sketch -->
    <title>Imported EPS</title>
    <desc>Created with Sketch.</desc>
    <defs>
        <path id="path-1" d="M0,0 L0,53.8 L77.2,103.2 L205.5,103.2 L288,53.6 L288,0.2 L286.9,1.9 L192.7,60.2 L90,60.2 L0,0 L0,0 Z"></path>
        <path id="path-3" d="M90,43.6 L192.7,43.6 L286.9,101.9 L288,103.7 L288,50.3 L205.5,0.6 L77.2,0.6 L0,50 L0,103.8 L90,43.6 L90,43.6 Z"></path>
    </defs>
    <g id="Page-1" stroke="none" stroke-width="1" fill="none" fill-rule="evenodd" sketch:type="MSPage">
        <g id="bridge-orange-1248" sketch:type="MSArtboardGroup" transform="translate(-34.000000, -25.000000)">
            <g id="Imported-EPS" sketch:type="MSLayerGroup" transform="translate(34.000000, 25.000000)">
                <g id="Page-1">
                    <g id="Group-3">
                        <mask id="mask-2" sketch:name="Clip 2" fill="white">
                            <use xlink:href="#path-1"></use>
                        </mask>
                        <g id="Clip-2"></g>
                        <path d="M0,0 L288,0 L288,103.2 L0,103.2 L0,0 Z" id="Fill-1" fill="#FF4F00" sketch:type="MSShapeGroup" mask="url(#mask-2)"></path>
                    </g>
                    <g id="Group-6" transform="translate(0.000000, 150.000000)">
                        <mask id="mask-4" sketch:name="Clip 5" fill="white">
                            <use xlink:href="#path-3"></use>
                        </mask>
                        <g id="Clip-5"></g>
                        <path d="M0,0.6 L288,0.6 L288,103.8 L0,103.8 L0,0.6 Z" id="Fill-4" fill="#FF4F00" sketch:type="MSShapeGroup" mask="url(#mask-4)"></path>
                    </g>
                    <path d="M374.13,27.68 L433.29,27.68 C441.02,27.68 448.85,28.31 456.78,29.565 C464.705,30.825 471.81,33.435 478.095,37.395 C484.375,41.36 489.5,46.87 493.465,53.925 C497.425,60.985 499.41,70.31 499.41,81.91 C499.41,92.35 496.315,101.439 490.13,109.17 C483.94,116.905 474.76,122.03 462.58,124.54 L462.58,125.12 C469.345,125.7 475.53,127.295 481.14,129.905 C486.745,132.515 491.58,135.995 495.64,140.345 C499.7,144.695 502.84,149.87 505.065,155.86 C507.285,161.854 508.4,168.43 508.4,175.58 C508.4,187.375 506.125,196.995 501.585,204.435 C497.04,211.88 491.335,217.729 484.475,221.98 C477.61,226.234 470.165,229.135 462.145,230.68 C454.12,232.229 446.63,233 439.67,233 L374.13,233 L374.13,27.68 L374.13,27.68 Z M393.27,116.42 L433,116.42 C442.86,116.42 450.88,115.215 457.07,112.795 C463.255,110.38 468.09,107.43 471.57,103.95 C475.05,100.47 477.37,96.75 478.53,92.785 C479.69,88.825 480.27,85.2 480.27,81.91 C480.27,74.76 479.06,68.814 476.645,64.075 C474.225,59.34 470.99,55.57 466.93,52.765 C462.87,49.965 458.13,47.98 452.72,46.82 C447.305,45.66 441.6,45.08 435.61,45.08 L393.27,45.08 L393.27,116.42 L393.27,116.42 Z M393.27,215.6 L437.06,215.6 C448.27,215.6 457.31,214.25 464.175,211.54 C471.035,208.835 476.305,205.45 479.98,201.39 C483.65,197.33 486.115,193.03 487.375,188.485 C488.63,183.944 489.26,179.835 489.26,176.16 C489.26,168.62 487.81,162.145 484.91,156.73 C482.01,151.319 478.24,146.92 473.6,143.535 C468.96,140.154 463.69,137.69 457.795,136.14 C451.895,134.595 445.95,133.82 439.96,133.82 L393.27,133.82 L393.27,215.6 L393.27,215.6 Z" id="Fill-7" fill="#FF4F00" sketch:type="MSShapeGroup"></path>
                    <path d="M551.897,136.72 C551.897,134.21 551.797,131.165 551.607,127.585 C551.412,124.01 551.267,120.385 551.172,116.71 C551.072,113.04 550.927,109.605 550.737,106.415 C550.542,103.225 550.447,100.76 550.447,99.02 L567.847,99.02 C568.037,104.05 568.182,108.88 568.282,113.52 C568.377,118.16 568.617,121.16 569.007,122.51 C573.452,114.585 579.157,108.11 586.117,103.08 C593.077,98.055 601.582,95.54 611.637,95.54 C613.377,95.54 615.067,95.685 616.712,95.975 C618.352,96.265 620.047,96.605 621.787,96.99 L619.757,114.1 C617.437,113.33 615.212,112.94 613.087,112.94 C605.547,112.94 599.022,114.15 593.512,116.565 C588.002,118.985 583.457,122.32 579.882,126.57 C576.302,130.825 573.647,135.805 571.907,141.505 C570.167,147.21 569.297,153.35 569.297,159.92 L569.297,233 L551.897,233 L551.897,136.72" id="Fill-8" fill="#FF4F00" sketch:type="MSShapeGroup"></path>
                    <path d="M647.02,45.95 C647.02,42.28 648.275,39.185 650.79,36.67 C653.301,34.16 656.394,32.9 660.07,32.9 C663.74,32.9 666.836,34.16 669.35,36.67 C671.859,39.185 673.119,42.28 673.119,45.95 C673.119,49.625 671.859,52.72 669.35,55.23 C666.836,57.745 663.74,59 660.07,59 C656.394,59 653.301,57.745 650.79,55.23 C648.275,52.72 647.02,49.625 647.02,45.95 L647.02,45.95 Z M651.37,99.02 L668.769,99.02 L668.769,233 L651.37,233 L651.37,99.02 Z" id="Fill-9" fill="#FF4F00" sketch:type="MSShapeGroup"></path>
                    <path d="M827.977,209.51 L827.397,209.51 C824.687,214.15 821.308,218.165 817.247,221.545 C813.187,224.93 808.787,227.734 804.052,229.955 C799.312,232.18 794.337,233.82 789.117,234.885 C783.897,235.945 778.772,236.48 773.747,236.48 C763.497,236.48 754.027,234.74 745.327,231.26 C736.627,227.78 729.183,222.899 722.997,216.615 C716.808,210.335 711.977,202.89 708.497,194.285 C705.018,185.685 703.277,176.26 703.277,166.01 C703.277,155.765 705.018,146.34 708.497,137.735 C711.977,129.135 716.808,121.69 722.997,115.405 C729.183,109.125 736.627,104.24 745.327,100.76 C754.027,97.28 763.497,95.54 773.747,95.54 C778.772,95.54 783.897,96.075 789.117,97.135 C794.337,98.2 799.312,99.845 804.052,102.065 C808.787,104.29 813.187,107.095 817.247,110.475 C821.308,113.86 824.687,117.87 827.397,122.51 L827.977,122.51 L827.977,13.76 L845.377,13.76 L845.377,233 L827.977,233 L827.977,209.51 L827.977,209.51 Z M829.717,166.01 C829.717,158.47 828.268,151.365 825.367,144.695 C822.467,138.025 818.502,132.225 813.477,127.295 C808.447,122.365 802.553,118.45 795.787,115.55 C789.018,112.65 781.672,111.2 773.747,111.2 C765.627,111.2 758.277,112.65 751.707,115.55 C745.133,118.45 739.527,122.365 734.887,127.295 C730.247,132.225 726.718,138.025 724.302,144.695 C721.883,151.365 720.677,158.47 720.677,166.01 C720.677,173.55 721.883,180.655 724.302,187.325 C726.718,193.995 730.247,199.795 734.887,204.725 C739.527,209.655 745.133,213.57 751.707,216.47 C758.277,219.37 765.627,220.82 773.747,220.82 C781.672,220.82 789.018,219.37 795.787,216.47 C802.553,213.57 808.447,209.655 813.477,204.725 C818.502,199.795 822.467,193.995 825.367,187.325 C828.268,180.655 829.717,173.55 829.717,166.01 L829.717,166.01 Z" id="Fill-10" fill="#FF4F00" sketch:type="MSShapeGroup"></path>
                    <path d="M1015.019,224.3 C1015.019,240.925 1012.6,254.36 1007.77,264.61 C1002.935,274.855 996.894,282.78 989.644,288.39 C982.394,293.995 974.61,297.766 966.3,299.7 C957.985,301.63 950.445,302.6 943.68,302.6 C936.91,302.6 930.29,301.97 923.814,300.715 C917.335,299.455 911.2,297.62 905.399,295.205 C899.6,292.785 894.33,289.84 889.595,286.36 C884.855,282.88 880.75,278.915 877.269,274.47 L890.899,261.71 C897.085,270.41 904.819,276.79 914.1,280.85 C923.38,284.91 933.24,286.94 943.68,286.94 C952.57,286.94 960.064,285.78 966.154,283.46 C972.245,281.14 977.269,278.095 981.234,274.325 C985.195,270.555 988.29,266.396 990.515,261.856 C992.735,257.31 994.38,252.766 995.444,248.225 C996.505,243.68 997.135,239.38 997.33,235.32 C997.521,231.26 997.62,227.975 997.62,225.46 L997.62,206.9 L997.04,206.9 C992.01,215.02 985.195,221.4 976.595,226.04 C967.99,230.68 957.89,233 946.29,233 C936.43,233 927.149,231.215 918.45,227.635 C909.75,224.06 902.16,219.13 895.685,212.845 C889.205,206.565 884.085,199.265 880.314,190.95 C876.545,182.64 874.66,173.745 874.66,164.27 C874.66,154.8 876.545,145.905 880.314,137.59 C884.085,129.279 889.205,122.03 895.685,115.84 C902.16,109.655 909.75,104.725 918.45,101.05 C927.149,97.38 936.43,95.54 946.29,95.54 C957.89,95.54 967.99,97.86 976.595,102.5 C985.195,107.14 992.01,113.52 997.04,121.64 L997.62,121.64 L997.62,99.02 L1015.019,99.02 L1015.019,224.3 L1015.019,224.3 Z M998.2,164.27 C998.2,156.925 996.795,150.015 993.995,143.535 C991.189,137.06 987.42,131.455 982.685,126.715 C977.945,121.98 972.34,118.21 965.865,115.405 C959.385,112.604 952.475,111.2 945.13,111.2 C937.78,111.2 930.87,112.604 924.394,115.405 C917.915,118.21 912.31,121.98 907.575,126.715 C902.835,131.455 899.065,137.06 896.265,143.535 C893.46,150.015 892.06,156.925 892.06,164.27 C892.06,171.62 893.46,178.53 896.265,185.005 C899.065,191.484 902.835,197.09 907.575,201.825 C912.31,206.565 917.915,210.335 924.394,213.135 C930.87,215.94 937.78,217.34 945.13,217.34 C952.475,217.34 959.385,215.94 965.865,213.135 C972.34,210.335 977.945,206.565 982.685,201.825 C987.42,197.09 991.189,191.484 993.995,185.005 C996.795,178.53 998.2,171.62 998.2,164.27 L998.2,164.27 Z" id="Fill-11" fill="#FF4F00" sketch:type="MSShapeGroup"></path>
                    <path d="M1175.967,207.769 C1169.197,218.02 1160.838,225.365 1150.882,229.81 C1140.923,234.255 1129.952,236.48 1117.967,236.48 C1107.718,236.48 1098.438,234.74 1090.127,231.26 C1081.813,227.78 1074.657,222.899 1068.667,216.615 C1062.673,210.335 1058.082,202.89 1054.893,194.285 C1051.702,185.685 1050.107,176.16 1050.107,165.72 C1050.107,155.67 1051.748,146.39 1055.037,137.88 C1058.322,129.375 1062.963,121.98 1068.957,115.695 C1074.947,109.415 1082.007,104.485 1090.127,100.905 C1098.247,97.33 1107.237,95.54 1117.098,95.54 C1127.343,95.54 1136.382,97.33 1144.212,100.905 C1152.042,104.485 1158.612,109.22 1163.933,115.115 C1169.247,121.015 1173.258,127.73 1175.967,135.269 C1178.673,142.81 1180.027,150.449 1180.027,158.18 L1180.027,170.36 L1067.507,170.36 C1067.507,174.035 1068.232,178.725 1069.683,184.425 C1071.132,190.13 1073.787,195.69 1077.657,201.1 C1081.522,206.515 1086.692,211.155 1093.172,215.02 C1099.647,218.89 1108.008,220.82 1118.257,220.82 C1127.147,220.82 1135.752,218.695 1144.067,214.44 C1152.378,210.19 1158.758,204.39 1163.207,197.04 L1175.967,207.769 L1175.967,207.769 Z M1162.627,154.7 C1162.627,148.71 1161.417,143.1 1159.002,137.88 C1156.583,132.66 1153.298,128.07 1149.143,124.105 C1144.982,120.145 1140.053,117 1134.352,114.68 C1128.647,112.36 1122.607,111.2 1116.227,111.2 C1106.752,111.2 1098.873,113.135 1092.592,117 C1086.308,120.87 1081.327,125.315 1077.657,130.34 C1073.982,135.37 1071.372,140.25 1069.827,144.985 C1068.277,149.725 1067.507,152.96 1067.507,154.7 L1162.627,154.7 L1162.627,154.7 Z" id="Fill-12" fill="#FF4F00" sketch:type="MSShapeGroup"></path>
                </g>
            </g>
        </g>
    </g>
</svg>