<?xml version="1.0" encoding="UTF-8" standalone="no"?>
<svg width="3437px" height="793px" viewBox="0 0 3437 793" version="1.1" xmlns="http://www.w3.org/2000/svg" xmlns:xlink="http://www.w3.org/1999/xlink" xmlns:sketch="http://www.bohemiancoding.com/sketch/ns">
    <!-- Generator: Sketch 3.3.2 (12043) - http://www.bohemiancoding.com/sketch -->
    <title>Artboard 1</title>
    <desc>Created with Sketch.</desc>
    <defs></defs>
    <g id="Page-1" stroke="none" stroke-width="1" fill="none" fill-rule="evenodd" sketch:type="MSPage">
        <g id="Artboard-1" sketch:type="MSArtboardGroup" fill="#FFFFFF">
            <g id="checkdesk" sketch:type="MSLayerGroup" transform="translate(12.000000, 20.000000)">
                <g id="Group" sketch:type="MSShapeGroup">
                    <path d="M3413,752.4 L3413,654.8 L0,654.8 L0,752.5 L1594.4,752.5 L1594.4,752.4 L3413,752.4 Z" id="Shape"></path>
                    <g transform="translate(18.000000, 0.000000)" id="Shape">
                        <path d="M378,176.8 C344,138.4 319.4,120.3 267.2,120.3 C230.3,120.3 199.9,134.1 174.5,160.8 C149.2,187.6 136.8,221.6 136.8,262.2 C136.8,303.5 149.1,338.2 174.5,365 C199.8,391.8 231,404.8 268.6,404.8 C325.8,404.8 356.9,383.1 392.4,334.6 L472,422.9 C421.3,490.2 349.6,524.3 257.7,524.3 C183.1,524.3 121.6,499.7 73.1,449.7 C24.6,399.7 0.7,336.7 0.7,262.2 C0.7,187.6 25.3,126.1 74.6,76.1 C124.6,26.1 186.1,0.8 260.7,0.8 C342.5,0.8 409.9,31.2 461.3,91.3 L378,176.8 L378,176.8 Z"></path>
                        <path d="M609.6,8.8 L609.6,190.5 C626.3,167.3 660.3,152.8 695,152.8 C779.7,152.8 831.1,207.8 831.1,309.9 L831.1,516.3 L705.9,516.3 L705.9,322.3 C705.9,285.4 690.7,266.5 660.3,266.5 C625.5,266.5 609.6,285.3 609.6,345.4 L609.6,516.3 L484.3,516.3 L484.3,8.8 L609.6,8.8 L609.6,8.8 Z"></path>
                        <path d="M1210,367.9 L979.8,367.9 C986.3,396.1 1013.8,412.1 1042.8,412.1 C1076.8,412.1 1102.2,399.8 1118.8,375.2 L1201.3,453.4 C1174.5,494.7 1114.4,524.4 1044.2,524.4 C989.2,524.4 943.6,507.7 907.4,475.2 C871.2,442.7 853.1,397.7 853.1,341.3 C853.1,285.5 869.8,240.7 903.8,205.9 C937.8,170.4 982,153 1035.6,153 C1091.4,153 1134.8,170.4 1165.2,205.9 C1195.6,241.4 1210.8,284.1 1210.8,334.8 L1210,367.9 L1210,367.9 Z M982,297.7 L1081.2,297.7 C1079,274.5 1062.4,257.2 1032.7,257.2 C1005.9,257.1 987,273.8 982,297.7 L982,297.7 Z"></path>
                        <path d="M1575.7,451.2 C1540.2,499.7 1488.1,524.3 1419.3,524.3 C1366.4,524.3 1321.6,506.9 1283.9,472.2 C1247,437.4 1228.1,393.3 1228.1,339 C1228.1,284.7 1246.9,240.5 1283.9,205.8 C1321.6,170.3 1366.4,152.9 1419.3,152.9 C1485.9,152.9 1537.3,176.1 1572.8,221.7 L1491.7,298.4 C1473.6,276 1451.2,265.1 1424.4,265.1 C1386.7,265.1 1353.4,296.2 1353.4,339 C1353.4,381.8 1384.5,412.1 1422.9,412.1 C1453.3,412.1 1477.2,399.1 1494.6,373.7 L1575.7,451.2 L1575.7,451.2 Z"></path>
                        <path d="M1589.6,516.3 L1589.6,8.8 L1715.6,8.8 L1715.6,252.1 L1789.5,161.6 L1936.5,161.6 L1813.3,310 L1945.8,516.4 L1806.8,516.4 L1733.7,398.4 L1715.6,421.6 L1715.6,516.4 L1589.6,516.4 L1589.6,516.3 Z"></path>
                        <path d="M2185.3,179.7 L2185.3,8.8 L2309.1,8.8 L2309.1,516.4 L2186.7,516.4 L2186.7,492.5 C2164.3,513.5 2135.3,524.4 2098.4,524.4 C2047,524.4 2005,507 1971,471.5 C1937.7,436 1921,391.9 1921,339 C1921,286.1 1937.7,242 1971,206.5 C2004.3,171 2045.6,152.9 2094.8,152.9 C2129.6,152.9 2160,161.6 2185.3,179.7 L2185.3,179.7 Z M2186.8,338.9 C2186.8,296.2 2156.4,264.3 2116.6,264.3 C2076.8,264.3 2046.4,296.2 2046.4,338.9 C2046.4,381.6 2076.8,412 2116.6,412 C2157.1,412.1 2186.8,381.7 2186.8,338.9 L2186.8,338.9 Z"></path>
                        <path d="M2687.1,367.9 L2456.9,367.9 C2463.4,396.1 2490.9,412.1 2519.9,412.1 C2553.9,412.1 2579.3,399.8 2595.9,375.2 L2678.4,453.4 C2651.6,494.7 2591.5,524.4 2521.3,524.4 C2466.3,524.4 2420.7,507.7 2384.5,475.2 C2348.3,442.6 2330.2,397.7 2330.2,341.3 C2330.2,285.5 2346.9,240.7 2380.9,205.9 C2414.9,170.4 2459.1,153 2512.7,153 C2568.5,153 2611.9,170.4 2642.3,205.9 C2672.7,241.4 2687.9,284.1 2687.9,334.8 L2687.1,367.9 L2687.1,367.9 Z M2459,297.7 L2558.2,297.7 C2556,274.5 2539.4,257.2 2509.7,257.2 C2482.9,257.1 2464.1,273.8 2459,297.7 L2459,297.7 Z"></path>
                        <path d="M2834.8,252.8 C2827.6,255.7 2823.9,259.3 2823.9,263.7 C2823.9,269.5 2828.2,273.1 2836.9,275.3 L2900.6,286.2 C2966.5,297.1 3004.1,336.2 3004.1,397.7 C3004.1,434.6 2989.6,465 2959.9,488.9 C2930.9,512.8 2893.3,524.4 2847.7,524.4 C2777.5,524.4 2724.6,504.1 2688.4,463.6 L2759.4,387.6 C2784,412.2 2815.9,424.5 2854.2,424.5 C2859.3,424.5 2864.3,423.8 2868.7,423.1 C2875.9,421.7 2879.6,418 2879.6,411.5 C2879.6,405 2875.3,400.6 2865.8,398.5 L2813.7,388.4 C2744.9,374.6 2701.5,331.9 2701.5,271.1 C2701.5,235.6 2716,207.4 2744.9,185.7 C2773.9,164 2807.9,153.1 2847.7,153.1 C2911.4,153.1 2960.6,170.5 2994.7,204.5 L2927.4,276.9 C2906.4,260.2 2879.6,251.6 2848.5,251.6 C2843.5,251.3 2839.1,252.1 2834.8,252.8 L2834.8,252.8 Z"></path>
                        <path d="M3027.8,516.3 L3027.8,8.8 L3153.8,8.8 L3153.8,252.1 L3227.7,161.6 L3374.7,161.6 L3251.5,310 L3384,516.3 L3245,516.3 L3171.9,398.3 L3153.8,421.5 L3153.8,516.3 L3027.8,516.3 L3027.8,516.3 Z"></path>
                    </g>
                </g>
            </g>
        </g>
    </g>
</svg>