<svg id="Outlined_type" data-name="Outlined type" xmlns="http://www.w3.org/2000/svg" viewBox="0 0 640 349.48"><defs><style>.cls-1{fill:red;}.cls-2{fill:#49b3e6;}.cls-3{fill:#231f20;}.cls-4{fill:#fff;}</style></defs><title>Electionland</title><path d="M45.74,229H88.87v11.66H60.64v15.46H83.23V267H60.64v16.48H90.35v11.66H45.74Z"/><path d="M100,224.84H113.3v70.35H100Z"/><path d="M122.56,271.58v-.74c0-15.27,10.83-25.18,24.9-25.18,12.5,0,23.6,7.31,23.6,24.62V274h-34.9c.37,8.05,4.72,12.68,12,12.68,6.2,0,9.26-2.68,10.09-6.76H171c-1.57,10.46-9.9,16.29-23.14,16.29C133.2,296.2,122.56,287,122.56,271.58ZM158,265.75c-.46-7.31-4.17-10.83-10.55-10.83-6,0-10.09,4-11.11,10.83Z"/><path d="M176.89,271.58v-.74c0-15.64,11.2-25.18,25-25.18,11.2,0,21.57,4.91,22.77,18.79H212c-.93-5.65-4.35-8.24-9.81-8.24-6.94,0-11.57,5.18-11.57,14.44v.74c0,9.72,4.35,14.72,11.85,14.72,5.37,0,9.72-3.15,10.37-9.35h12.13c-.74,11.48-9.07,19.44-23.14,19.44S176.89,287.41,176.89,271.58Z"/><path d="M235.38,280.84V256.31h-6.2v-9.53h6.2V236.32h13.33v10.46h10.18v9.53H248.71v23.33c0,3.89,1.94,5.74,5.37,5.74a12.49,12.49,0,0,0,5.09-.93v10.37a24.39,24.39,0,0,1-8.15,1.3C240.84,296.11,235.38,290.93,235.38,280.84Z"/><path d="M267.59,232.89a7.64,7.64,0,1,1,7.59,7.31A7.33,7.33,0,0,1,267.59,232.89Zm1,13.88h13.33v48.41H268.6Z"/><path d="M289.43,271.49v-.74c0-15.18,11-25.08,25.55-25.08s25.45,9.72,25.45,24.81v.74c0,15.27-11,25-25.55,25S289.43,286.58,289.43,271.49Zm37.39-.19v-.65c0-9.26-4.35-14.81-11.85-14.81s-11.85,5.37-11.85,14.62v.74c0,9.26,4.26,14.81,11.85,14.81S326.82,280.47,326.82,271.3Z"/><path d="M347.55,246.77H361v7.68c2.41-4.81,7.68-8.79,15.73-8.79,9.53,0,16.29,5.74,16.29,18.7v30.82H379.58V266.3c0-6.57-2.59-9.72-8.52-9.72-5.74,0-10.09,3.52-10.09,10.64v28H347.55Z"/><path d="M404.84,224.84h13.33v70.35H404.84Z"/><path d="M427.24,281.76c0-11.29,10.37-15.55,25.18-15.55h5.46v-1.94c0-5.74-1.76-8.89-7.87-8.89-5.28,0-7.68,2.68-8.24,6.85H429.09c.83-11.48,9.9-16.57,21.75-16.57s20.27,4.81,20.27,18v31.56H458.06v-5.83c-2.78,3.89-7,6.85-14.62,6.85C434.64,296.2,427.24,291.94,427.24,281.76Zm30.64-3.52v-4.07h-5.18c-7.78,0-12.31,1.67-12.31,6.85,0,3.52,2.13,5.83,7,5.83C453.34,286.85,457.88,283.61,457.88,278.25Z"/><path d="M482.58,246.77H496v7.68c2.41-4.81,7.68-8.79,15.73-8.79,9.53,0,16.29,5.74,16.29,18.7v30.82H514.61V266.3c0-6.57-2.59-9.72-8.52-9.72-5.74,0-10.09,3.52-10.09,10.64v28H482.58Z"/><path d="M536.63,271.67v-.74c0-15.92,9.16-25.27,21.29-25.27,7.78,0,12.59,3.42,15.27,8.33V224.84h13.33v70.35H573.19v-8.05a17.62,17.62,0,0,1-15.55,9.07C545.89,296.2,536.63,287.78,536.63,271.67Zm36.93-.46v-.74c0-9.63-4.26-14.53-11.57-14.53-7.5,0-11.66,5.09-11.66,14.72v.74c0,9.63,4.63,14.35,11.29,14.35C568.66,285.74,573.57,281,573.57,271.21Z"/><polygon class="cls-1" points="284.75 194.04 408.33 194.04 408.33 170.64 296.5 170.64 284.75 194.04"/><rect class="cls-1" x="308.42" y="126.04" width="79.77" height="23.4"/><rect class="cls-1" x="308.42" y="81.43" width="99.91" height="23.4"/><path class="cls-2" d="M202.87,160.37V48H315.3V160.37Z"/><polygon class="cls-3" points="315.31 160.37 284.75 194.04 288.55 160.37 315.31 160.37"/><path class="cls-4" d="M249.37,118.82l-8.69-16.09H222.31L238,131.46a2.52,2.52,0,0,0,2.21,1.31h17.66a2.52,2.52,0,0,0,2.12-1.15L295.87,76H276.93Z"/></svg>