<?xml version="1.0" encoding="UTF-8" standalone="no"?>
<svg width="104px" height="80px" viewBox="0 0 104 80" version="1.1" xmlns="http://www.w3.org/2000/svg" xmlns:xlink="http://www.w3.org/1999/xlink" xmlns:sketch="http://www.bohemiancoding.com/sketch/ns">
    <!-- Generator: Sketch 3.3.2 (12043) - http://www.bohemiancoding.com/sketch -->
    <title>meedan-black</title>
    <desc>Created with Sketch.</desc>
    <defs></defs>
    <g id="Page-1" stroke="none" stroke-width="1" fill="none" fill-rule="evenodd" sketch:type="MSPage">
        <g id="meedan-black" sketch:type="MSArtboardGroup" fill="#000000">
            <g id="meedan-logo-text" sketch:type="MSLayerGroup" transform="translate(2.000000, 1.000000)">
                <g id="Page-1" sketch:type="MSShapeGroup">
                    <g id="Imported-Layers">
                        <path d="M80,31.2889296 L79,32 L79,30.5153548 L67.453,38.863 L49.705,26.032 L83.904,1.307 C82.8867261,2.08583111 82.0171606,3.04795483 81.3450223,4.14406485 L81.3450223,4.14406485 C81.9192365,3.425223 82.584052,2.77956562 83.322562,2.22365298 L83.861031,1.84073099 C85.6150221,0.678437876 87.726582,0 90,0 C96.0754953,0 101,4.84479563 101,10.8196274 C101,11.532263 100.929853,12.2288371 100.796,12.9030236 L100.796,69 C100.796,68.0251366 100.667983,67.0810327 100.428258,66.1841879 C100.550823,66.8221971 100.615,67.4810351 100.615,68.155 C100.615,73.897 95.959,78.553 90.217,78.553 C88.067,78.553 86.071,77.901 84.414,76.785 L83.904,76.417 C81.421,74.516 79.818,71.523 79.818,68.155 L79.818,47.8 L80,47.9315833 L80,31.2889296 Z M19.591,48.8366767 L19.591,68.155 C19.591,71.523 17.988,74.516 15.505,76.417 L49.705,51.693 L67.453,38.863 L49.705,26.032 L31.957,38.863 L44.786,48.137063 L44.786,48.137063 L31.956,38.863 L22,46.058857 L22,31.6655326 L31.956,38.863 L49.704,26.032 L15.505,1.307 C17.988,3.208 19.591,6.201 19.591,9.569 L19.591,27.1633233 L4.59422032,16.6573331 C1.81314613,14.7242616 0,11.5670138 0,8 L0,68 C0,64.4329862 1.81314613,61.2777873 4.59422032,59.3426669 L19.591,48.8366767 L19.591,48.8366767 Z M83.904,76.417 C81.421,74.516 79.818,71.523 79.818,68.155 L79.818,47.8 L67.453,38.863 L49.705,51.693 L83.904,76.417 Z" id="Fill-1"></path>
                        <path d="M17,2 L16,2 C14.6859643,0.657215322 12.6704813,0 10,0 C4.70144732,0 1.77635684e-15,4.69324316 1.77635684e-15,10 C1.77635684e-15,13.9920336 1.73073039,17.0966704 4,19 L4,19 L21,31 L21,10 C21,7.08623269 19.3813531,4.0692918 17,2" id="Fill-4"></path>
                        <path d="M21,67 L21,47 L4,59 C1.73081362,60.9017657 1.77635684e-15,64.0085195 1.77635684e-15,68 C1.77635684e-15,73.3066042 4.70066359,78 10,78 C12.6700808,78 14.6856607,77.3427633 16,76 L17,76 C19.3822851,73.9295678 21,70.9125289 21,68" id="Fill-5"></path>
                    </g>
                </g>
            </g>
        </g>
    </g>
</svg>