<?xml version="1.0" encoding="UTF-8" standalone="no"?>
<svg width="104px" height="80px" viewBox="0 0 104 80" version="1.1" xmlns="http://www.w3.org/2000/svg" xmlns:xlink="http://www.w3.org/1999/xlink" xmlns:sketch="http://www.bohemiancoding.com/sketch/ns">
    <!-- Generator: Sketch 3.3.2 (12043) - http://www.bohemiancoding.com/sketch -->
    <title>meedan transparent</title>
    <desc>Created with Sketch.</desc>
    <defs></defs>
    <g id="Page-1" stroke="none" stroke-width="1" fill="none" fill-rule="evenodd" sketch:type="MSPage">
        <g id="meedan-transparent" sketch:type="MSArtboardGroup" fill="#FFFFFF">
            <path d="M1,11.016 C1,5.274 5.656,0.618 11.398,0.618 C13.548,0.618 15.544,1.27 17.201,2.387 L17.711,2.754 C20.194,4.655 21.797,7.648 21.797,11.016 L21.797,31.371 L21.797,49.232 L5.343,61.135 C2.714,63.024 1,66.104 1,69.586 L1,11.016 Z M2.185625,15.839625 C2.94275,17.281 4.0285,18.523 5.343,19.467 C4.0285,18.5235 2.94275,17.28125 2.185625,15.839625 Z M17.71,77.8625 L51.9082709,53.1380271 L51.911,53.14 L69.659,40.31 L51.911,27.479 L34.1630376,40.3099728 L34.1604625,40.3088885 L34.162,40.31 L51.91,27.479 L17.711,2.754 C20.194,4.655 21.797,7.648 21.797,11.016 L21.797,31.371 L34.1604625,40.3088885 L21.796,49.2455 L21.796,69.6005 C21.796,72.9685 20.193,75.9615 17.71,77.8625 L17.201,78.2305 C15.543,79.3475 13.547,79.9995 11.398,79.9995 C5.655,79.9995 1,75.3435 1,69.6015 C1,66.1195 2.714,63.0375 5.342,61.1515 L5.342,61.1415 L21.796,49.2465 L21.796,69.6005 C21.796,72.9685 20.194,75.9615 17.71,77.8625 L17.71,77.8625 Z M86.11,2.754 C83.627,4.655 82.024,7.648 82.024,11.016 L82.024,31.371 L69.659,40.31 L51.911,27.479 L86.11,2.754 Z M82.025,31.3692766 L82.025,11.016 C82.025,7.648 83.627,4.655 86.111,2.754 L86.62,2.386 C88.278,1.269 90.274,0.617 92.423,0.617 C98.166,0.617 102.821,5.273 102.821,11.015 C102.821,14.497 101.107,17.58 98.479,19.465 L98.479,19.4662821 C101.107435,17.5792184 102.821,14.4975585 102.821,11.016 L102.821,69.586 C102.821,66.104 101.107,63.024 98.478,61.135 L82.024,49.232 L82.024,31.37 L82.025,31.3692766 Z M0,0 L104,0 L104,80 L0,80 L0,0 Z M86.11,77.864 L86.62,78.232 C88.277,79.348 90.273,80 92.423,80 C98.165,80 102.821,75.344 102.821,69.602 C102.821,66.119 101.107,63.04 98.478,61.152 L98.478,61.143 L82.024,49.247 L82.024,69.602 C82.024,72.97 83.627,75.963 86.11,77.864 Z M86.11,77.864 C83.627,75.963 82.024,72.97 82.024,69.602 L82.024,49.247 L69.659,40.31 L51.911,53.14 L86.11,77.864 Z" id="Rectangle-1" sketch:type="MSShapeGroup"></path>
        </g>
    </g>
</svg>