<svg width="712" height="477" viewBox="0 0 712 477" xmlns="http://www.w3.org/2000/svg" xmlns:xlink="http://www.w3.org/1999/xlink"><title>Page 1</title><defs><path id="a" d="M607.977 477h103.849V.822H0V477h607.977v-21.245H67.265V477h540.712z"/><path id="c" d="M0 .307v32.364h21.497V.307H0z"/></defs><g fill="none" fill-rule="evenodd"><path d="M388.032 276.665a1.95 1.95 0 0 0 1.676-.29 3.91 3.91 0 0 0-3.358-.005 2.22 2.22 0 0 0 1.67.306l.012-.011zm-166.906 21.093c-.84-.624-2.223-.252-2.637.709.82.619 2.19.223 2.552-.738l.085.029zm80.2-9.994c-.457-.95-1.81-1.325-2.69-.748-.094 1.155 1.694 1.207 2.772.784l-.082-.036zm42.47 22.398a8.207 8.207 0 0 0-1.846-3.604c-.875 1.354.3 3.48 1.912 3.459l-.067.145zm-94.907 3.305a3.096 3.096 0 0 0 2.378-.335 17.734 17.734 0 0 0-7.436.01 14.08 14.08 0 0 0 5.046.327l.012-.002zm88.037-3.071c-1.298-1.06-3.21-1.3-4.73-.594 1.291 1.025 3.13 1.314 4.674.735l.056-.141zm-25.534 2.13a6.414 6.414 0 0 0-4.725-1.568c.287 2.02 3.295 2.965 4.685 1.47l.04.098zm256.31-1.501a8.28 8.28 0 0 0-4.85-1.281c.88 1.76 3.198 2.638 5.023 1.903l-.174-.622zm-362.244-5.63a2.987 2.987 0 0 0-2.727-.557 1.877 1.877 0 0 0-.31 1.6 4.661 4.661 0 0 0 2.972 1.059 1.783 1.783 0 0 0 .064-2.063l.001-.04zm9.954-20.597l-6-.751c.88 2.338 4.627 2.807 6.056.759l-.056-.008zm19.883 10.05c.907.33 2.012-.54 1.901-1.5-2.476.09-4.845 1.644-5.914 3.879 1.551.444 3.365-.601 3.76-2.165l.253-.214zm33-26.2l2.866 1.375c.267-2.214-2.019-4.34-4.207-3.911a1.71 1.71 0 0 0-.327 1.542l1.692.946-.024.049zm94.307 36.815l-1.958.014c-.353 1.173.335 2.562 1.482 2.992 1.148.429 2.58-.165 3.084-1.282l-2.602-1.726-.006.002zM203.767 280.25c-2.69-.64-5.677 1.607-5.81 4.368a20.026 20.026 0 0 0 5.81-4.368zm168.26-21.028a5.51 5.51 0 0 0 5.03.349 12.776 12.776 0 0 0-9.44-2.012l4.45 1.439-.04.224zm-38.43 3.76c-1.036-2.403-3.81-3.924-6.395-3.503 1.137 2.328 3.82 3.799 6.394 3.504zm-126.639 20.72c.263-.915.168-2.334-.784-2.301a8.695 8.695 0 0 1-4.01 5.3c1.87 1.735 5.538-.5 4.855-2.957l-.06-.041zm66.771 28.577c.75.586 1.511 1.179 2.395 1.53a5.022 5.022 0 0 0 3.017.209 14.461 14.461 0 0 0-9.445-4.893l4.033 3.154zm-76.856-1.406c2.283.21 4.581.259 6.871.145.895-.045 2.128-.738 1.616-1.473a35.427 35.427 0 0 1-9.876-1.277c-.799-.221-1.325 1.03-.842 1.704.484.672 1.406.825 2.231.9zm165.33-47.817a28.27 28.27 0 0 0-8.17-4.49c-1.704-.597-3.666-1.008-5.252-.147 4.172 2.369 8.626 4.81 13.421 4.637zm-79.496 10.065a19.813 19.813 0 0 0-7.297-6.436c-1.349-.692-3.125-1.178-4.272-.186a23.084 23.084 0 0 0 11.57 6.622zm69.567 35.649c1.776.92 3.895 1.853 5.688.968a22.122 22.122 0 0 0-12.08-7.076c-1.232 1.162.477 3.04 1.98 3.82l4.412 2.288zm-106.77-41.15l-9.31.832c2.887 2.255 7.275 2.337 10.247.193a75.447 75.447 0 0 0 13.637 6.493c.113-1.946-1.718-3.38-3.35-4.444-2.014-1.311-4.098-2.652-6.462-3.075-1.568-.28-3.176-.14-4.762.002zm55.176 9.37a301.552 301.552 0 0 0-19.317-11.796c-1.118-.627-3.072-.853-3.179.424 6.417 5.8 13.87 11.98 22.496 11.372zm33.918-17.626a320.297 320.297 0 0 0 38.071 13.865c.74.218 1.481.433 2.238.573.985.18 2.48-.451 1.973-1.315-9.48-6.29-22.173-6.316-31.395-12.978-3.054-2.206-7.276-1.22-10.887-.145zm-11.816 45.568l4.017-.4c.038-1.818-2.222-2.707-4.04-2.795-1.817-.088-3.983-.057-5.006-1.562-1.964-2.892-3.963-5.823-6.63-8.083-2.669-2.26-6.138-3.804-9.613-3.416-.244.94.593 1.783 1.34 2.406a90.627 90.627 0 0 1 14.511 15.362c1.525 2.048 3.043 4.233 5.282 5.46 2.24 1.228 5.457 1.12 6.93-.966-3.209-.33-6.072-2.861-6.79-6.006zM294.835 291.9l-29.42-22.293c-1.467-1.11-2.973-2.242-4.73-2.785a8.006 8.006 0 0 0-5.992.544c15.63 7.849 27.363 22.438 43.632 28.862 1.496.59 3.57.93 4.394-.451-.755-2.972-5.439-2.025-7.883-3.877zm180.013 12.413l11.193 1.058a132.219 132.219 0 0 0-25.347-10.913c1.743 4.446 9.718 3.41 11.332 7.904l-7.8-2.737c-10.162-3.566-21.673-7.075-31.32-2.286-.813.404-1.582 1.68-.73 1.997a66.888 66.888 0 0 1 21.131 3.243 8.94 8.94 0 0 0-4.903-4.184c3.37-.488 6.56 1.39 9.713 2.673 5.282 2.149 11.054 2.708 16.731 3.245zm-242.805-32.81a17.927 17.927 0 0 1 3.51 9.272l1.916-3.654c2.448 2.022 2.651 6.189 5.498 7.594 2.81 1.388 4.956 3.813 7.557 5.56 2.6 1.749 6.185 2.75 8.798 1.02l-6.908-5.01a79.422 79.422 0 0 1-14.624-13.743c-1.59-1.93-3.455-4.123-5.956-4.124l-23.358-.01 12.957 8.543c.874.576 1.848 1.177 2.887 1.047 1.04-.13 1.921-1.431 1.266-2.248-1.057-1.318-.067-3.441 1.471-4.14 1.54-.7 3.323-.41 4.986-.107zm73.52 42.229a27.175 27.175 0 0 0-12.218-5.847c-.879-.172-1.41-1.036-1.936-1.762-1.362-1.883-3.3-3.253-5.204-4.587l-27.399-19.208c-2.059-1.444-4.134-2.896-6.426-3.93-1.055.464-.288 2.057.572 2.823a507.802 507.802 0 0 0 37.536 30.38c1.66 1.218 3.493 2.479 5.55 2.417l9.525-.286zm-106.565-11.274a7.095 7.095 0 0 0-5.018-3.061c-.04 1.508-1.096 2.937-2.526 3.419-.409-3.276-3.109-5.721-5.632-7.85l-31.646-26.711c-5.843-4.932-12.432-10.141-20.076-9.948l47.514 37.159c1.7 1.329 3.527 2.866 3.852 5 .57 3.728 6.481 3.117 9.13 5.8.677-1.913 2.411-3.413 4.402-3.808zm14.5 9.942l17.327.74-25.946-15.091c.67-1.203 1.338-2.405 2.006-3.608l-31.694-21.168c4.661-.135 8.885 2.53 12.778 5.097.66-1.77 1.384-3.631 2.871-4.794 1.487-1.164 3.987-1.247 5.028.328-1.626 1.15-3.37 2.47-3.824 4.41-.454 1.94 1.371 4.363 3.226 3.636-1.647-3.472 2.351-7.441 6.193-7.387 3.842.053 7.146 2.562 10.257 4.817a122.5 122.5 0 0 0 14.242 8.894c.35.187.72.376 1.116.372 1.07-.01 1.607-1.471 1.155-2.442-.45-.971-1.468-1.525-2.412-2.03a106.188 106.188 0 0 1-21.725-15.38l-56.048-6.473c1.896 1.613 4.371 2.32 6.686 3.234a35.927 35.927 0 0 1 15.638 12.033c8.817 2.05 16.978 6.839 23.07 13.535a280.95 280.95 0 0 0-20.64-12.167c10.026 12.952 25.907 19.579 40.226 27.532 1.78.988 3.736 2.277 4.01 4.293l-7.612-2.01c-1.309 1.826 1.828 3.533 4.071 3.629zm139.238-13.45l.161-4.203c9.854 6.577 20.45 13.395 32.296 13.538 4.51.054 9.03-.897 13.136-2.764a421.382 421.382 0 0 0 40.917-2.128c-5.013-2.908-11.315-3.487-16.774-1.542a24.317 24.317 0 0 1 5.073-6.18l-12.54 4.729c-3.709 1.399-8.403 2.614-11.212-.181-3.986-3.967-10.646-1.312-15.66 1.234-5.015 2.545-12.336 4.205-15.258-.6 6.537 1.89 13.94.48 19.324-3.68 2.764-2.136 6.841-4.938 9.118-2.29 4.454 5.18 12.841 2.035 18.724-1.438-12.302.125-24.62-3.272-35.12-9.683-6.663-4.07-14.258-6.298-21.752-8.484l-51.507-15.021 7.071 8.017c-2.49 1.008-4.7-1.797-6.249-3.991-1.549-2.195-5.068-4.102-6.543-1.857 3.587 1.442 6.352 4.773 7.107 8.565-4.536-5.627-12.077-8.676-19.25-7.783a46.527 46.527 0 0 0 8.303 6.502l-15.934-5.404 54.992 34.87c.895.567 1.838 1.15 2.895 1.234 3.095.242 6.501-3.67 8.682-1.46zm286.407 55.547l-3.288.567a270.503 270.503 0 0 0 71.663 16.492l-20.814-7.786c1.941-.313.645-3.538-1.27-3.98-1.917-.44-4.372-.136-5.398-1.813-1.134-1.851.85-4.206 2.95-4.757 2.1-.551 4.388-.16 6.432-.891 2.044-.731 3.605-3.54 2.032-5.037-6.372 3.19-14.346 2.935-20.5-.657 2.452-.304 1.834-4.52-.486-5.368-2.32-.85-4.84.237-7.274.664-4.295.753-8.92-.724-11.983-3.83 6.511 1.08 12.935-1.897 18.864-4.794 1.197-.585 2.41-1.181 3.406-2.065a421.042 421.042 0 0 1-58.812-8.885l1.71 3.288a138.405 138.405 0 0 0-45.464-13.04 46.21 46.21 0 0 0 10.352 7.2c1.421.724 4.127-.477 2.81-1.378 11.277 9.498 25.305 15.689 39.922 17.619-2.056 3.624-7.492 2.534-11.329.909a448.15 448.15 0 0 1-54.92-27.873l-112.632-41.825c-9.19-3.413-19.162-6.868-28.587-4.168 3.874.24 7.406 3.279 8.222 7.075 5.645-1.021 11.747.979 15.692 5.144-1.573.08-3.146.163-4.719.244 21.887 12.74 43.945 25.559 67.872 33.855l-27.963-16.583 41.464 19.092-12.09-9.89 23.413 14.177a31.23 31.23 0 0 0-5.09-7.113 80.043 80.043 0 0 0 29.75 13.995l-.7-4.96a33.487 33.487 0 0 0 12.918 10.08l2.02-3.347a14.27 14.27 0 0 0 3.267 5.259l2.75-.663a273.464 273.464 0 0 0 65.81 25.043zM82.01 299.027c26.93-1.467 53.781 3.103 80.364 7.655l-14.973-16.494a75.14 75.14 0 0 0 25.922 16.993l-15.61-14.29c7.816 5.216 15.632 10.43 23.448 15.647l-11.863-11.14 21.858 13.527c-21.726-26.246-49.98-47.046-81.495-59.994l30.29 35.093-38.89-34.798c13.54 20.547 31.601 38.098 52.527 51.045-23.572-12.842-44.013-31.382-59.089-53.591l8.028 19.708-14.488-19.704a69.497 69.497 0 0 0 2.786 18.73l-7.293-19.102A492.49 492.49 0 0 0 .158 259a200.612 200.612 0 0 1 75.89-12.761c42.725 1.153 84.031 15.92 126.654 19.088 66.36 4.93 132.877-18.41 198.898-10.1 39.4 4.959 76.407 20.936 113.597 34.856 62.892 23.54 129.57 41.774 196.487 36.144a28.212 28.212 0 0 1-16.888 2.109l12.352 5.067-18.869-1.038 22.04 10.55a12.636 12.636 0 0 1-8.229 4.255c2.87 1.575 6.582 1.483 9.37-.232l-.015 28.837c-80.399-6.645-151.357-57.983-231.398-68.057-61.262-7.711-122.77 9.332-184.485 11.292-98.906 3.142-199.668-32.291-295.303-6.871 10.078-5.756 21.85-8.505 33.436-7.81l-8.338-7.474a29.933 29.933 0 0 0 17.19 5.839l-7.337-6.053c14.566 6.054 31.05 3.244 46.8 2.386z" fill="#000"/><path d="M534.52 395.729c-1.034.056-2.006 1.353-1.3 2.111l2.435-1.129-.933-1.095-.202.113zm-94.952 3.356c-.774-.78-2.105-.926-3.03-.332-.1 1.732 3.094 2.138 3.43.436l-.4-.104zm-71.87-28.537c-1.6-1.088-3.777-1.266-5.532-.453 1.215 1.646 3.901 1.921 5.423.554l.11-.101zm91.598 30.857c1.484.814 3.475.573 4.723-.571a6.986 6.986 0 0 0-5.08-1.007c-.45.458-.244 1.361.36 1.578h-.003zm-1.708-2.269a6.235 6.235 0 0 0 4.35-2.154c-1.178-.536-2.5-1.081-3.724-.661-1.224.42-1.854 2.339-.743 3.002l.117-.187zm37.898-.327c.752-.895.818-2.3.153-3.262a126.611 126.611 0 0 0-6.175 4.611c2.04.831 4.545.368 6.153-1.138l-.13-.211zm-8.733.841l-.916-3.883a26.603 26.603 0 0 0-5.05 4.385c1.702 1.004 4.015.849 5.57-.373l.396-.129zm-44.375-25.177c-2.76-1.888-6.683-1.885-9.44.007 2.838 1.691 6.604 1.689 9.44-.007zm-29.338 5.206c-3.053-1.129-4.948-4.336-7.97-5.546a6.97 6.97 0 0 0-4.724-.146 57.814 57.814 0 0 0 12.694 5.692zm54.6 19.506a2.434 2.434 0 0 1-.319-1.786c-.998-.56-2.426-.118-2.93.909 1.863 3.27 6.92 4.093 9.725 1.583a11.375 11.375 0 0 0-6.477-.706zm-41.23-12.197l4.35-5.696.796-1.042c-1.97.173-4.105.417-5.538 1.781-1.433 1.364-1.46 4.256.391 4.957zm-45.604-8.64l-5.95-2.99c-1.648-.828-4.492-1.005-4.509.839l6.732 3.728c.903.5 1.921 1.017 2.922.764 1.001-.253 1.637-1.729.805-2.341zm49.698 9.613c1.041 1.73 3.493 2.432 5.292 1.514 1.798-.918 2.668-3.316 1.877-5.173a15.33 15.33 0 0 1-1.187-4.942 3.187 3.187 0 0 0-2.412-.227c.495 1.845.991 3.786.533 5.64-.457 1.854-2.225 3.534-4.103 3.188zm13.524-23.153a990.764 990.764 0 0 0 22.797-.92c.597-.031 1.104-.62 1.047-1.215-.443-1.151-2.007-1.253-3.237-1.158l-22.718 1.749c-.472.947 1.053 1.575 2.111 1.544zm-46.245 28.098l5.372 6.132c.92 1.05 1.873 2.127 3.127 2.74 1.253.613 2.896.65 3.931-.286 1.036-.935.973-2.945-.299-3.519l-6.978-3.145c-1.019-2.741-3.63-4.509-6.089-6.093l-10.705-6.896c-1.259-.811-3.55-1.188-3.704.301a513.03 513.03 0 0 0 15.345 10.766zm151.162 8.931c-.994-.886-2.12-1.895-3.447-1.775-1.327.12-2.152 2.266-.912 2.755-13.638 1.421-27.398-4.898-40.886-2.429a522.083 522.083 0 0 1 54.506 8.098c-3.203-2.053-6.42-4.117-9.26-6.649zm-130.727-36.3l20.285 5.133c4.542 1.149 9.314 2.301 13.856 1.151a95.823 95.823 0 0 0-8.837-4.034c-8.055-3.194-17.18-5.266-25.304-2.25zm.793 14.48c1.203.7 2.472 1.419 3.863 1.459 1.391.04 2.915-.858 3.061-2.242l-6.093-4.396a5.585 5.585 0 0 1 3.921-3.187l-.695 3.153c1.608.07 3.085 1.347 3.386 2.929.16.84 1.238 1.258 2.04.96.801-.298 1.32-1.093 1.584-1.907.683-2.112-.135-4.619-1.93-5.922-3.21-2.328-8.26-.664-11.245-3.273-.57-.498-1.035-1.136-1.703-1.493-.826-.442-1.819-.382-2.752-.311l-18.739 1.426c-.868.066-1.987.374-2.025 1.244a57.89 57.89 0 0 0 15.022 3.582c.484 1.075 1.564 1.733 2.583 2.325l9.722 5.653zm8.857 23.364c-1.792-.276-3.658-.581-5.127-1.642-1.469-1.061-2.383-3.128-1.555-4.741 4.563 4.254 10.768 6.699 17.007 6.703l-11.272-8.04c-1.264-.902-2.15-3.398-.598-3.446a36.847 36.847 0 0 1 7.867 5.899c-.747-1.675 1.651-3.336 3.374-2.705 1.723.631 2.663 2.443 3.443 4.104l-1.216 3.091a42.295 42.295 0 0 0 17.162-1.346c-1.536-.806-3.146-1.681-4.045-3.165-.898-1.483-.726-3.761.807-4.574-3.372-2.315-7.992 2.021-11.878.744a98.885 98.885 0 0 0-18.035-4.103c-.84-1.208-.975-2.871-.34-4.199a90.83 90.83 0 0 1-31.728-13.316c-3.72-2.482-8.106-5.38-12.3-3.83 1.074.32 1.802 1.522 1.59 2.622-2.69-2.464-6.706-3.383-10.2-2.335a206.117 206.117 0 0 1 44.35 31.513c1.803 1.681 3.648 3.441 5.967 4.277 2.32.836 5.271.478 6.727-1.511zm-82.644-33.18l34.136 21.393-50.509-21.161 17.535 13.53c-16.294-11.486-37.52-15.701-56.967-11.31l16.406 3.196-7.867.908 19.356 16.81c-18.576-17.914-45.938-26.247-71.346-21.73a63.003 63.003 0 0 1 25.61 9.99c-2.585-.3-2.377-4.707-.003-5.776 2.373-1.068 5.121.148 7.325 1.533l-3.465 6.388c7.352-4.099 17.96-.018 20.67 7.953a236.324 236.324 0 0 0-85.458-22.629c5.557 5.837 13.373 9.466 21.418 9.945-1.09-3.536-5.754-5.417-8.993-3.628 4.135-4.193 12.232-3.101 15.11 2.037-2.487.336-4.635 2.418-5.05 4.893 2.181 1.264 3.595 3.752 3.565 6.272l7.958-2.656c-2.71 3.114-3.78 7.582-2.775 11.586-15.735-24.679-48.538-31.066-77.725-33.25A665.656 665.656 0 0 0 .458 372.501c85.428-24.317 176.291-6.753 265.068-3.95 52.15 1.647 104.333-1.885 156.258-6.989 50.532-4.967 104.44-10.834 149.555 12.463a559.581 559.581 0 0 0 140.172 50.071 77.308 77.308 0 0 0-16.454 3.004c-9.337-8.115-22.34-11.831-34.556-9.877-.195-5.463-10.487-5.451-10.67.013l-1.603-7.435-35.709-12.432c2.092-.9 2.181 3.704-.09 3.88-2.27.175-3.89-2.038-5.274-3.846-5.705-7.455-15.333-11.719-24.687-10.934-.657-3.362-3.522-6.181-6.895-6.783 1.06 3.627 2.12 7.255 3.178 10.882-11.4-18.498-34.198-29.262-55.726-26.312 2.56-1.773 6.172.823 6.988 3.827.816 3.005-.003 6.194.164 9.302.455 8.454 7.83 14.68 14.73 19.585 39.007 27.727 82.894 48.568 129.034 61.277 9.072 2.499 18.917 4.654 27.706 1.29l10.178 8.315a270.212 270.212 0 0 1-89.296-24.635c-18.888-8.936-36.77-20.081-56.358-27.356-45.456-16.883-95.684-11.583-144.008-7.589a2277.976 2277.976 0 0 1-215.349 7.566c-69.258-.845-140.077-4.651-206.248 15.814 2.705-3.899 7.596-5.526 12.171-6.785 44.89-12.35 92.098-12.57 138.656-12.705l97.125-.283a403.179 403.179 0 0 1-50.227-41.009c24.893 7.168 38.377 40.327 64.275 40.883a1078.78 1078.78 0 0 0 133.42-5.406l-26.359-9.55c-1.657-.601-3.513-1.395-4.08-3.065-.567-1.669 1.623-3.792 2.865-2.54 14.987 8.753 32.07 13.89 49.4 14.854-3.838-2.914-9.218-3.66-13.703-1.899-15.218-17.333-36.259-29.463-58.885-33.946z" fill="#000"/><g transform="translate(0 -.822)"><mask id="b" fill="#fff"><use xlink:href="#a"/></mask><path d="M557.29 466.796c.839.331 1.872.087 2.473-.585l-4.76-1.226c.096.977 1.202 1.716 2.14 1.432l.147.38zm-40.69-5.595a26.785 26.785 0 0 0-8.872-1.302c-.823.018-1.693.091-2.37.561 3.276 2.171 7.71 2.464 11.242.741zm67.445 11.221c-2.788-2.657-6.66-4.142-10.508-4.033 2.022 3.521 6.649 5.297 10.508 4.033zm-83.842-12.648a19.224 19.224 0 0 0-11.158.79 87.973 87.973 0 0 1 13.425 2.21c.973-1.158-.793-2.659-2.267-3zm42.368 9.24c-2.648-4.07-7.127-6.898-11.941-7.538-.75-.1-1.824.157-1.725.907a53.59 53.59 0 0 0 13.666 6.63zm31.937 3.664c-3.12-4.192-8.453-6.63-13.663-6.248 2.662 1.28 5.576 2.832 6.514 5.633l7.149.615zm-54.636-12.093c-.745-.158-1.918.34-1.467.952a28.269 28.269 0 0 0 12.444 7.292c-2.23-4.164-6.356-7.264-10.977-8.244zm21.985 3.744l8.778 6.205c1.112.786 2.242 1.582 3.527 2.037a7.512 7.512 0 0 0 5.614-.27 65.871 65.871 0 0 0-18.327-10.093c-.944.083-.365 1.574.408 2.121zM465.1 461.74a24.997 24.997 0 0 0 15.517-2.454c-63.751 1.412-127.37 6.3-190.95 11.187 6.073 5.09 14.743 5.238 22.665 5.136l237.455-3.08c-14.01-3.77-28.814-1.62-43.306-.97-14.493.65-30.15-.638-41.381-9.819zm-162.798 4.197c51.305-2.225 102.392-8.528 153.727-9.916 51.335-1.388 103.534 2.306 151.948 19.435l-302.743 1.122c-5.351.02-11.168-.116-15.335-3.473-3.69-2.972-8.826-3.15-13.564-3.18A2596.452 2596.452 0 0 0 67.265 477c77.306-13.757 156.589-7.66 235.037-11.063z" fill="#000" mask="url(#b)"/></g><path d="M687.447 5.586l2.005-.857a8.222 8.222 0 0 0-5.622-1.412c.663 1.263 2.111 2.07 3.534 1.97l.083.299zm4.35-.825c1.907 1.993 4.956 2.808 7.603 2.03-1.983-1.882-4.944-2.674-7.603-2.03zm-14.125 23.795c.844.888 2.433.905 3.296.035a10.217 10.217 0 0 0-7.112-2.613c.457 1.6 2.17 2.738 3.822 2.539l-.006.039zm-14.09-4.643a5.096 5.096 0 0 0-3.298-.75 2.049 2.049 0 0 0-.298 1.63 16.38 16.38 0 0 0 8.932 2.19 8.28 8.28 0 0 0-5.297-3.067l-.039-.003zM614.007 11.31c-5.329-2.114-10.25-5.16-15.587-7.258-5.335-2.097-11.383-3.2-16.777-1.258a320.182 320.182 0 0 0 72.64 21.128 164.556 164.556 0 0 0-23.35-7.85c-5.685-1.447-11.474-2.6-16.926-4.762zm95.032 23.025l-3.35-5.767 5.772 2.624.017 5.899a494.654 494.654 0 0 1-38.907-5.872c-49.074-9.42-97.629-26.365-147.526-23.681 1.692-2.557 5.345-2.644 8.405-2.454l43.021 2.673c-2.943-3.242-7.787-3.708-12.159-3.96l-27.816-1.6c-5.846-.335-11.856-.651-17.418 1.18-4.144 1.366-8.839 3.845-12.499 1.47 1.57-.212 2.988-1.314 3.581-2.783a3345.064 3345.064 0 0 0-69.835-.367 90.41 90.41 0 0 0 28.04 3.332c-5.319 1.628-11.025 1.126-16.562.609L395.758.406 647.956.324c19.873-.007 39.82-.008 59.511 2.678 2.24.305 5.207 2.254 3.803 4.024a5.977 5.977 0 0 0-3.226-.297 4.285 4.285 0 0 0 3.418 2.38l.022 8.203c-11.79-.67-23.326-5.228-32.39-12.797-1.127-.94-2.582-1.992-3.923-1.394-1.34.597-.21 3.359.832 2.326-5.377-3.704-12.395-4.922-18.706-3.248l5.246 4.15c-14.069-4.9-29.373-6.202-44.067-3.752a85.052 85.052 0 0 0 19.818 7.157l-2.23-3.59c17.927 3.447 37.104 7.557 49.62 20.849 2.36 2.508 5.857 5.555 8.706 3.618l-7.273-7.834a129.849 129.849 0 0 0 21.922 11.538zM667.636 224.55c.542.082 1.074-.484.959-1.02-.464-.775-1.443-1.204-2.327-1.017-.502.874.388 2.154 1.382 1.988l-.014.05zm3.72-2.188a41.805 41.805 0 0 1 13.657 10.439l-27.916-11.27a125.579 125.579 0 0 0 14.727 16.635c-5.212-1.98-11.624-.136-14.99 4.309.028-3.955 3.578-7.551 7.532-7.63-2.842-7.256-9.856-12.702-17.59-13.657l-20.674-2.553a68.4 68.4 0 0 0-29.332-4.71c8.906-3.343 18.78-.718 28.093 1.227 28.477 5.948 58.343 5.132 86.453-2.361 1.235 4.667-.79 10.479-5.376 11.985 1.515 1.302 4.069 1.126 5.39-.37.044 1.418.086 2.835.128 4.253-6.447-.187-12.816-2.497-17.885-6.486 5.965 1.596 12.803-.905 16.33-5.973a170.463 170.463 0 0 1-38.546 6.162zM540.622 100.081c.203.654 1.2.869 1.655.356-.157-.675-.426-1.464-1.097-1.638-.67-.174-1.214 1.057-.53 1.166l-.028.116zm98.232 37.381c.763-.252 1.137-1.288.71-1.968-.6.134-1.271.323-1.555.867-.284.545.309 1.401.832 1.078l.013.023zm69.196-26.302c-.457-.948-1.807-1.324-2.687-.749-.096 1.154 1.693 1.207 2.77.784l-.083-.035zM529.516 92.801l-2.57.064c.262 1.006.694 2.186 1.709 2.411 1.015.224 1.713-1.696.675-1.757l.186-.718zm103.312 40.034c-.42.647-.073 1.648.657 1.896a4.355 4.355 0 0 0 2.58-2.831c-1.027-.704-2.663-.169-3.076 1.007l-.161-.072zM482.637 92.433c-2.92-1.558-6.95 1.897-5.856 5.019 2.607-.595 4.869-2.534 5.856-5.019zm139.146-6.117c-.552.142-1.118.313-1.553.682-.407.345-.67.955-.402 1.416 3.62.968 7.718-.119 10.382-2.755a24.537 24.537 0 0 0-8.427.657zm55.249 2.379c-3.405-.036-6.74 2.074-8.165 5.166.3.453.6.906.902 1.359 3.279-.838 6.08-3.355 7.263-6.525zm-38.837-2.046a9.884 9.884 0 0 0-5.747 3.252c4.288.469 8.736-.699 12.239-3.217a7.99 7.99 0 0 0-6.546-.131l.054.096zm72.248 51.387c.074-1.4-.472-2.996-1.776-3.511-1.304-.514-3.065.944-2.387 2.172.575 1.04.132 2.314-.026 3.492-.158 1.177.319 2.727 1.507 2.774a6.605 6.605 0 0 0 2.682-4.927zm-41.786 5.897c-.003 1.577 2.21 2.057 3.727 1.622a9.245 9.245 0 0 0 5.55-4.497c-2.682-1.618-6.486-1.028-8.552 1.327-.384.438-.724.966-.725 1.548zM475.35 92.398l-13.41-1.121c-.813-.068-1.675-.127-2.4.247-.724.374-1.2 1.353-.75 2.033 1.135 1.32 3.25.633 4.864-.021 1.613-.654 3.973-.881 4.61.738.658 1.663 2.649 2.671 4.378 2.213 1.729-.458 2.96-2.319 2.708-4.089zm178.302-1.124l5.179-2.303c.8-.356 1.696-.82 1.902-1.672-7.782-.341-15.656 2.611-21.294 7.986 4.963.062 9.678-1.994 14.213-4.011zm43.12 52.433c1.965-.947 1.632-4.989 3.808-4.836 1.426.1 1.753 2.035 1.666 3.462l1.449-.598c1.908-2.238.099-6.077-2.715-6.931-2.814-.855-5.864.492-8.117 2.384-2.252 1.891-4.005 4.319-6.25 6.221 2.845 1.575 6.959-.235 7.72-3.395l2.439 3.693zm-22.013-9.343l7.246 4.791c-.26 1.249-1.682 1.79-2.761 2.469-1.08.68-1.904 2.38-.853 3.102 2.597.511 4.804-2.029 5.699-4.519.894-2.491 1.19-5.316 2.93-7.31.85-.973.292-2.613-.78-3.334-1.072-.72-2.442-.777-3.733-.81-3.044-.079-6.495.006-8.55 2.253-.39.426-.722.963-.681 1.539.058.81.805 1.371 1.483 1.819zm-26.063 12.574c.598 1.573 3.009 1.17 4.3.09 1.29-1.08 2.5-2.637 4.183-2.576-.667 1.141.882 2.534 2.175 2.261 1.293-.273 2.158-1.457 2.897-2.553.179.824 1.38 1.022 2.068.534.687-.487.975-1.353 1.22-2.159l1.988-6.51c-1.85-2.052-5.32-.582-7.201 1.439-1.882 2.022-3.587 4.687-6.326 5.046a63.538 63.538 0 0 0-21.995 7.144c1.454 1.333 3.684 1.257 5.63.943a36.698 36.698 0 0 0 11.06-3.659zm54.027-52.08l3.6-4.158a60.602 60.602 0 0 1-17.715-.952c-.861-.176-1.83-.351-2.56.137-.731.489-.69 1.927.186 2.01 2.6.245 5.133 1.171 7.279 2.659-1.131 2.005 1.409 4.465 3.695 4.185 2.286-.28 4.008-2.14 5.515-3.881zm-142.39-6.045c.194 2.503 1.603 4.884 3.703 6.259l-14.92-4.796a14.299 14.299 0 0 1 4.139 6.859c-3.233-2.297-6.554-4.636-10.38-5.684-3.825-1.048-8.321-.56-11.132 2.238 7.442-.676 15.096 3.522 18.526 10.16a21.029 21.029 0 0 1-13.916-1.71 13.582 13.582 0 0 0 2.462 4.787c-6.153-1.821-11.65-5.785-15.32-11.049-1.355-1.944-4.386-4.115-5.5-2.024 2.439 1.599 3.834 4.658 3.44 7.547a25.574 25.574 0 0 0-11.071-8.314l2.684 5.661c-6.827-5.435-16.242-7.46-24.7-5.311l5.983 5.418c-1.337.143-2.555 1.091-3.022 2.351a41.945 41.945 0 0 1 12.64 6.283c-14.434-5.187-29.431-9.805-44.762-9.387-8.043.219-17.58 1.245-22.663-4.993a20.015 20.015 0 0 1 12.33 4.472l5.787-6.402a13.55 13.55 0 0 0-7.86-1.655l1.725 2.929a182.602 182.602 0 0 0-27.078-6.778c35.64 1.739 71.312 5.262 106.937 3.228 20.9-1.194 41.656-4.295 62.55-5.603 40.155-2.513 80.396 1.616 120.418 5.74.89 2.088-.938 4.233-2.336 6.023-1.398 1.789-2.214 4.894-.196 5.936 2.157 1.112 2.44 4.028 2.443 6.455l.037 37.227-80.685 8.565c-15.956 1.693-31.996 3.39-48.018 2.502 4.33-3.806 6.578-9.852 5.782-15.563 2.349 1.689 2.82 5.457.959 7.673-2.65 3.153 2.69 7.826 6.483 6.219 3.792-1.607 5.344-6.053 6.48-10.011 1.587 3.086.998 7.149-1.4 9.657 3.277 1.68 6.922-1.584 8.742-4.785 1.82-3.201 3.703-7.131 7.343-7.692l-6.292 11.442c8.095.748 14.704-6.016 19.979-12.202l-5.397 11.184c3.913-1.338 7.208-4.386 8.845-8.184-.021 2.199 3.434 2.055 5.277.854a23.783 23.783 0 0 0 7.376-7.648c-8.551 4.108-19.427 2.807-26.767-3.2-1.585-1.297-1.761-4.997.132-4.216 1.497 3.121 6.242 4.018 8.775 1.66l-5.091-1.088c2.085-2.766-1.451-6.443-4.793-7.356-3.341-.912-7.475-1.265-9.047-4.351 1.67-.346 2.386-2.522 1.825-4.132-.562-1.61-1.966-2.754-3.305-3.81L592.47 97.571l3.33-2.549c-7.285-7.846-19.832-10.216-29.48-5.57l7.047.542c-3.468 3.61-10.273 2.994-13.034-1.181zM168.52 17.904c-.432-.382-1.06.465-.715.927.345.461 1.046.441 1.597.273.07-.529-.312-1.079-.83-1.199h-.052zm6.242-4.76l.264-1.76-1.75-.346c-.55.873.314 2.218 1.337 2.081l.15.024zm4.583-4.059c-.774-.78-2.107-.926-3.03-.33.086 1.535 2.756 1.904 3.256.45l-.226-.12zm-5.64 8.292c.446-3.13-2.924-5.316-5.795-6.644l-2.1-.972c-.91 1.537.57 3.378 2.02 4.421a26.878 26.878 0 0 0 5.874 3.195zM172.285.72c-.225 3.105 3.536 5.062 6.642 4.85 3.106-.212 6.053-1.686 9.167-1.665a75.43 75.43 0 0 0-9.51 10.355c-.603.792-1.217 1.687-1.16 2.681.35 6.001 3.713 11.752 8.774 14.996 2.976 1.91 6.916 3.572 7.367 7.08a774.17 774.17 0 0 0-20.685-14.4c-.936-.63-1.925-1.277-3.048-1.386-1.087-.105-2.155.31-3.244.39-1.089.08-2.39-.357-2.659-1.415-1.473-5.8-5.532-10.894-10.857-13.624 3.683-2.188 9.3 1.748 12.376-1.232 1.38-1.335 1.488-3.479 2.31-5.214.82-1.734 3.434-2.993 4.527-1.416zM10.43 3.128a33.469 33.469 0 0 0 3.508 6.296c.534.755 1.51 1.565 2.26 1.024.881-3.477-2.181-7.364-5.768-7.32M21.148.464a6.991 6.991 0 0 0-1.912 4.328c-.085 1.274.181 2.542.447 3.791.683 3.222 1.369 6.445 2.052 9.668-2.65 1.326-3.99-4.67-6.944-4.437-1.046.083-1.83.977-2.404 1.857a16.193 16.193 0 0 0-2.594 9.34c-1.164.22-2.256-.854-2.496-2.015-.24-1.162.134-2.353.514-3.476 1.54-4.54 3.127-9.977.186-13.765-1.421-1.829-3.801-3.07-4.308-5.33 5.82.012 11.639.026 17.459.04M156.443 15.326a12.58 12.58 0 0 1-8.04-3.158 7.82 7.82 0 0 0 2.764 5.852c-1.38 1.052-3.208-.503-4.246-1.892-1.805-2.418-3.71-4.832-6.191-6.549-2.481-1.716-5.656-2.667-8.564-1.862-3.446.955-7.431-1.635-7.957-5.171 1.674.103 2.888 1.55 4.184 2.615 1.297 1.064 3.43 1.718 4.499.425 1.306-1.583-.516-3.798-2.172-5.009 3.17-.339 6.21 1.349 8.694 3.346 2.484 1.998 4.7 4.386 7.515 5.882 3.289 1.748 7.496 2.392 9.514 5.521M256.856 4.34c-.845.397-.466 1.835.409 2.156.876.322 1.836-.076 2.683-.466-.213-1.268-1.837-2.06-2.967-1.447l-.125-.242zm-5.596 9.705l-4.83-2.21c1.013 3.083 3.943 5.442 7.171 5.772.973-1.404-.666-3.661-2.302-3.17l-.039-.392zm-7.076-5.012a14.596 14.596 0 0 0 7.028 2.435c1.438.108 3.114-.123 3.891-1.338.777-1.215-.521-3.306-1.793-2.625-1.241.666-2.768.118-4.024-.52-1.256-.64-2.615-1.388-3.991-1.087-1.377.3-2.279 2.348-1.111 3.135zm-3.648 1.643l-7.811-7.077a154.82 154.82 0 0 1 19.362.237 13.019 13.019 0 0 0-4.935-3.292c1.543-.396 3.153.109 4.695.51a37.054 37.054 0 0 0 10.809 1.174c.071 2.894-1.787 5.49-3.911 7.457-2.671 2.473-1.998 6.877-.487 10.188 1.511 3.312 3.701 6.592 3.434 10.222l-10.98-10.168c-.69-.64-1.452-1.311-2.387-1.398-.936-.086-1.987.767-1.709 1.665a5.34 5.34 0 0 0 3.044 1.372 20.29 20.29 0 0 1-7.916 10.09 66.354 66.354 0 0 0 2.211-12.595c.126-1.63.181-3.331-.469-4.831-.616-1.424-1.8-2.512-2.95-3.554zM260.27 471.266a70.75 70.75 0 0 1 14.924 4.16l-9.067-.24-5.858-3.92M203.266 470.657l9.735 4.488c-2.047.313-4.178.62-6.157.008-1.978-.611-3.748-2.432-3.578-4.496M67.188.427c.372 1.989-.436 4.154-2.019 5.413-.675-1.172-1.373-2.48-1.114-3.808.26-1.329 2.035-2.34 3.012-1.403l.121-.202zM711.413 265.231a11.459 11.459 0 0 1-1.553-8.516c1.67 2.457 2.25 5.628 1.553 8.516M711.454 275.979c-1.296.312-2.763-.357-3.377-1.54 1.197-1.052 3.463-.026 3.462 1.568l-.085-.028zM121.275 14.776A77.702 77.702 0 0 1 105.062.685c6.812-.502 9.397 11.44 16.214 11.023.832-.051 1.565.508 2.209 1.038a564.97 564.97 0 0 1 13.323 11.315c-.367 1.058-1.845 1.32-2.855.833-1.01-.486-1.68-1.453-2.395-2.315-2.76-3.326-6.66-5.447-10.283-7.803M225.632 475.247c1.076-1.51 3.681-1.512 4.76-.007l-4.59.192-.17-.185zM328.891 191.348c.268.605 1.424.097 1.16-.51a5.08 5.08 0 0 0-4.008-1.708c.033 1.28 1.45 2.325 2.682 1.977l.166.24zm194.204 29.979c-1.91-.414-4.575-.396-5.05 1.499 1.861.844 4.26.273 5.542-1.32l-.492-.18zm6.287 16.97c1.552 1.845 5.185.766 5.478-1.627-1.73.04-3.449.493-4.975 1.309l-.503.319zm-189.998-45.092a33.297 33.297 0 0 0-13.288-8.25c3.22 4.25 8.05 7.25 13.288 8.25zm74.143 21.425l-93.698-48.173c2.633 5.87 7.33 10.79 13.071 13.693l-10.247-3.162c11.947 11.539 26.862 19.979 42.905 24.279a37782.69 37782.69 0 0 1-18.633-12.477 1186.547 1186.547 0 0 0 165.154 71.24c9.524 3.278 19.184 6.454 29.204 7.485a659.062 659.062 0 0 1-74.805-35.988c-6.029-3.384-12.094-6.9-18.779-8.664l12.11 1.134c-7.616-1.803-15.235-3.607-22.766-5.74a269.853 269.853 0 0 1-35.764-12.913l12.248 9.286zm161.884 46.088c6.316 5.334 14.817 7.999 23.048 7.226-5.47 2.298-12.04 1.77-17.073-1.373 1.635 1.538-1.718 3.572-3.87 2.935-2.153-.637-5.258-1.461-5.997.659 20.628 7.97 43.46-6.963 65.406-4.245l-3.994-5.425a22.596 22.596 0 0 0 12.291 4.858l-10.608-10.188 15.935 9.3a18.11 18.11 0 0 0-7.6-8.445c-.182-1.702 2.633-.527 3.52.938 4.19 6.93 13.037 9.14 20.98 10.74l36.64 7.378c-27.204-4.895-55.302-9.777-82.243-3.603-50.617 11.599-103.5-3.307-151.518-23.08-48.017-19.773-94.58-44.724-145.574-54.533-1.517-.292-2.17-2.06-2.55-3.556l-7.816-30.673c28.331 16.409 57.805 30.854 88.187 43.053 17.781 7.138 36.006 13.542 54.95 16.42 25.098 3.814 50.677 1.337 75.942-1.147l39.76-3.908c-15.743 2.34-31.487 4.683-47.23 7.025l28.288-.97-23.824 4.6c.791 1.74 2.582 2.978 4.488 3.103l-8.247 1.408a51.394 51.394 0 0 0 18.174 4.846l-8.938 7.044a93.16 93.16 0 0 1 17.848 5.127l-5.044 3.222 18.585 5.702-5.67.588c3.606 3.498 8.745 5.357 13.754 4.974zM303.413 406.54c1.507.865 3.538.704 4.89-.387a7.416 7.416 0 0 0-4.252-1.287c.435-.947.868-1.895 1.302-2.844a25.129 25.129 0 0 0-9.087 5.454c2.267-.118 4.531-.236 6.797-.356l.35-.58zm-12.71-5.998a6.532 6.532 0 0 1 1.895 5.089 25.045 25.045 0 0 0 7.173-5.533c-3.023.147-6.046.296-9.069.445zm-6.326-4.057c-.615-1.502-2.826-.622-4.32.012-2.21.935-4.72.72-7.099.401a98.981 98.981 0 0 1-9.783-1.816c1.68-.45 2.58-2.216 3.811-3.445 1.233-1.23 3.78-1.664 4.368-.027-1.763.275-3.188 1.974-3.155 3.76a6.231 6.231 0 0 1 3.62-2.91c1.44-.431 2.98-.321 4.48-.207 9.716.738 19.432 1.476 29.147 2.216 4.21.32 8.313 1.925 11.624 4.546l-12.47-1.86c-1-.15-2.058-.292-2.992.095-.933.385-1.64 1.51-1.209 2.425 5.433-1.648 11.687 3.602 11.005 9.238-3.613.185-7.226.37-10.839.553-2.132.11-4.363.2-6.296-.704-2-.933-3.887-2.926-5.998-2.288-.545-.875-.026-2.207.967-2.484a15.994 15.994 0 0 1-9.79-2.692c.19-1.248 1.67-1.743 2.863-2.156 1.192-.413 2.545-1.49 2.066-2.657zM303.477 99.056c.417.942 1.751 1.328 2.607.756-.058-1.332-2.135-1.97-2.93-.9l.323.144zm149.1 49.538l1.812 1.758c.835-1.403-.536-3.501-2.156-3.3-.437.434-.204 1.315.39 1.476l-.046.066zm-86.798-16.85a13.167 13.167 0 0 0-5.577 1.025c-.62.26-1.236.583-1.672 1.094a10.32 10.32 0 0 0 7.25-2.118zm105.496 14.204a7.241 7.241 0 0 0-4.672-2.225 11.659 11.659 0 0 0 5.742 5.206c.616-1.005.044-2.523-1.082-2.872l.012-.11zm-63.426 8.223c.47-.61.671-1.417.543-2.176a43.664 43.664 0 0 0-11.324-5.32c-.378-1.273.7-2.623 1.98-2.981 1.28-.358 2.646.022 3.88.515 6.591 2.635 12.061 8.578 19.156 8.8-7.316-8.17-17.766-13.458-28.68-14.515l1.67 4.187-4.994 2.11a125.502 125.502 0 0 0 17.77 9.38zm-50.818-14.443a94.206 94.206 0 0 0 21.48 11.187c1.617.593 3.482 1.126 4.997.305 4.414-2.394 9.535 4.499 14.232 2.723-4.25-4.76-10.33-7.844-16.682-8.462-1.037-.1-2.138-.157-2.998-.746-.86-.588-1.289-1.941-.555-2.681 2.13-2.143.983-6.096-1.52-7.788-2.503-1.692-5.75-1.715-8.764-1.486-1.485 2.396-.922 5.849 1.247 7.649-.937 1.02-2.622 1.245-3.794.509-1.173-.736-1.7-2.352-1.19-3.64-1.959 1.443-4.639 1.848-6.936 1.049-.478.325.008 1.05.483 1.38zm-24.218-4.84c-7.448-4.37-15.259-8.483-21.11-14.834a37.662 37.662 0 0 1-8.166-14.065c-1.24.732-1.647 2.37-1.49 3.803.157 1.432.748 2.779 1.022 4.193.795 4.112-1.046 8.798 1.196 12.335 1.175 1.854 3.23 2.926 5.197 3.899a440.338 440.338 0 0 0 31.88 14.232 10.352 10.352 0 0 0-5.706-4.895c.908-1.798-1.086-3.65-2.823-4.668zm-23.062-48.706l2.828 5.377a29.245 29.245 0 0 0-11.777-5.531c1.423 1.593 1.645 4.138.521 5.955 4.693.664 8.806 4.378 9.944 8.98l10.715 6.85c1.57 1.004 3.23 2.037 5.088 2.15 1.86.113 3.937-1.062 4.134-2.913a45.727 45.727 0 0 0 11.135-.877 55.481 55.481 0 0 1-20.472-17.363 4813.386 4813.386 0 0 0 27.948 21.537l-8.58.744c-2.076 1.689-3.144 4.53-2.697 7.168 4.69-5.767 13.852-3.308 20.672-.353 7.623 3.303 15.26 6.612 22.543 10.606 4.405 2.414 8.703 5.089 13.417 6.824 8.272 3.044 17.7 3.155 25.094 7.953 5.642 3.66 11.086 10.165 17.543 8.283l-18.035-13.508a117.006 117.006 0 0 1 30.93 13.067 185.344 185.344 0 0 0-13.163-14.067c9.643 6.035 19.772 12.237 31.11 13.18l-22.69-16.414a184.908 184.908 0 0 1 44.75 17.715l-76.233 4.54c-16.995 1.013-34.189 2.015-50.932-1.073-19.59-3.612-37.703-12.658-55.38-21.842-2.608-1.355-5.312-2.8-7.015-5.195-1.905-2.681-2.26-6.132-2.503-9.412a309.49 309.49 0 0 1-.614-34.498 661.96 661.96 0 0 1 103.657-.61c9.58.697 20.311 2.219 26.09 9.89a142.054 142.054 0 0 0-54.442-9.397 311.6 311.6 0 0 1 47.288 29.259l-43.04-23.95c-6.402-3.562-13.895-7.224-20.735-4.605a12.28 12.28 0 0 1 6.387 6.399c-4.677-4.01-10.698-6.42-16.848-6.746l7.062 6.6c-4.903-3.476-10.942-7.118-16.538-4.926a165.66 165.66 0 0 1 36.058 16.096l-4.953 2.538a37.488 37.488 0 0 0 9.001 2.776 12.07 12.07 0 0 0 3.958 6.482 70.78 70.78 0 0 1-23.654-14.535 3.426 3.426 0 0 0 .594 3.279c-3.567.21-6.383-2.778-8.98-5.232-10.26-9.698-25.35-14.011-39.186-11.201zM81.825 100.548c-1.019-1.324-2.847-1.969-4.472-1.577.39 2.477 2.011 4.73 4.236 5.884a9.726 9.726 0 0 0 .772-4.452l-.536.145zm-15.519-1.096c2.095-1.743 5.421.137 7.947-.885 2.706-1.094 3.08-4.708 3.024-7.627l-.19-9.75c2.227 1.662 2.596 4.77 3.226 7.476.63 2.706 2.327 5.77 5.105 5.765 2.521-.004 4.988-2.63 7.201-1.422l-5.956 8.142c-.609.833-1.235 1.704-1.42 2.72-.217 1.195.21 2.404.628 3.546l3.634 9.887c-3.398.708-5.415-4.68-8.885-4.677-2.002.002-3.469 1.808-4.625 3.442l-2.694 3.812a416.723 416.723 0 0 1 15.986 16.116c-1.514.195-2.827-.97-3.907-2.048l-11.877-11.867c-1.684-1.682-3.359-4.597-1.52-6.11 2.574-2.119 2.586-6.227 1.041-9.183-1.545-2.956-4.253-5.09-6.718-7.337zM287.399 230.86c-.163.745.236 1.944.889 1.547.927-.467-.156-2.213-.987-1.589l.098.041zm5.867-1.929c-.18-.66-1.347-.09-1.183.575.164.665.94.95 1.613 1.075.438-.49.255-1.388-.341-1.668l-.09.018zm-.863-5.092c.294 1.042 2.249-.118 1.474-.875-.395-.967-2.211.101-1.56.916l.086-.04zm6.159-.278c-.868.871-1.734 1.923-1.71 3.153.015.74.356 1.431.708 2.082a37.896 37.896 0 0 0 6.51 8.732c-2.64 1.517-5.421-1.578-8.163-2.903-4.334-2.093-10.26 1.462-10.454 6.271-.035.86-1.304 1.183-1.992.665-.687-.519-.88-1.46-.937-2.319a13.055 13.055 0 0 1 .677-5.083c.825-2.403-.505-5.122-2.505-6.69-2-1.567-4.537-2.239-6.997-2.874-.51-.004-.717-.752-.426-1.17.29-.419.832-.568 1.33-.679a51.133 51.133 0 0 1 15.955-1.005c.1-1.675-2.562-1.438-4.077-2.159-1.605-.762-1.913-2.87-2.008-4.645l-.382-7.095c4.238 2.397 4.344 9.671 9.028 11.002 4.373 1.242 9.69-3.903 13.064-.855a30.484 30.484 0 0 0-7.621 5.572zM233.806 190.473c.998.034 1.72-1.32 1.135-2.13-.584-.81-2.096-.55-2.378.408l1.267 1.318-.024.404zm3.95-13.236c-.795-1.481-2.568-2.371-4.231-2.123 1.554 3.415 5.435 5.61 9.162 5.184-.516-1.857-2.54-3.16-4.444-2.86l-.487-.201zm-8.8 3.453c1.302 3.057 4.469 4.81 7.42 6.336 1.109.574 2.533 1.126 3.512.353a57.629 57.629 0 0 0-10.931-6.69zm3.732-17.607l4.553 8.596c1.265 2.389 4.076 3.632 6.777 3.755 2.7.124 5.346-.684 7.928-1.484-.881 3.78-6.071 4.843-7.878 8.278-1.2 2.279-.617 5.113.548 7.409 1.166 2.295 2.862 4.29 4.016 6.59-3.76 1.04-6.281-4.49-10.15-4.98-3.715-.47-6.137 3.694-7.5 7.182-.915.76-1.93-.87-1.947-2.06a22.691 22.691 0 0 1 .42-4.71c.3-1.535.76-3.116.379-4.632-1.154-4.575-8.513-4.818-10.212-9.22a36.082 36.082 0 0 0 12.327-1.716 36.03 36.03 0 0 1 .739-13.008zM185.794 133.821c.683 1.54 2.404 2.548 4.08 2.394a10.942 10.942 0 0 0-2.993-4.802c-.63-.588-1.398-1.125-2.262-1.132-.863-.008-1.764.741-1.618 1.592l2.663 2.004.13-.056zm-7.864.69c1.635 4.471 5.94 7.843 10.671 8.361a25.019 25.019 0 0 0-10.67-8.36zm4.393-14.629c.055-1.21 1.066-2.893 1.98-2.099l2.265 7.606c.324 1.09.675 2.225 1.474 3.033 2.985 3.02 8.454-1.058 12.266.811-2.71 2.678-5.423 5.356-8.134 8.033-.38.375-.777.781-.888 1.303-.113.532.096 1.074.3 1.58l4.52 11.146c-2.416.421-4.455-1.623-6.348-3.18-1.893-1.557-5.015-2.629-6.542-.712l-6.489 8.138a20.48 20.48 0 0 1 1.957-11.646c1.061-2.135-1.063-4.463-3.112-5.683-2.048-1.22-4.552-2.61-4.678-4.99l10.933-2.183c.163-3.719.328-7.438.496-11.157zM149.455 84.443c-.459-.759-1.905-.334-1.88.553.526.742 1.961.293 1.971-.617l-.09.064zm-2.842 10.922c.688-2.16-.11-4.574-1.506-6.36-1.397-1.786-3.324-3.067-5.217-4.316-1.509.685-.866 3.06.382 4.15 1.247 1.091 2.98 1.943 3.295 3.57l-2.283.775c1.191 1.632 3.335 2.51 5.33 2.181zm-9.489.878c.18-.66.36-1.363.17-2.02-.192-.665-.724-1.165-1.235-1.63l-5.979-5.452c.841-1.927 3.622-1.532 5.656-2.06 2.324-.602 3.981-2.774 4.632-5.086.65-2.31.466-4.765.235-7.155-.095-.98-.179-2.045.343-2.882.522-.836 1.917-1.157 2.467-.339a23.916 23.916 0 0 0 2.876 9.958c1.14 2.085 4.216 1.711 6.462.935 2.246-.776 5.141-1.504 6.666.318-4.454 1.29-8.08 5.108-9.14 9.622-1.059 4.514.49 9.547 3.906 12.683-2.426.764-5.302-.272-6.684-2.407-1.267-1.958-4.344-1.867-6.22-.483-1.878 1.384-2.892 3.612-3.979 5.676-.69 1.312-2.07 2.802-3.377 2.102l3.201-11.78zM162.987 196.474c-.276-1.462-1.966-2.479-3.387-2.038.51 1.51 2.067 2.6 3.66 2.56l-.273-.522zm-8.448-.938l-5.31-3.1c2.269-2.81 7.334-.212 10.228-2.372 2.283-1.704 1.838-5.187 1.158-7.954l-1.234-5.023c1.704-.44 3.282 1.157 3.928 2.793.647 1.637.822 3.494 1.864 4.912 1.266 1.721 3.584 2.4 5.714 2.24 2.13-.16 4.134-1.028 6.092-1.884.804.558.75 1.826.206 2.64-.544.814-1.423 1.328-2.18 1.95-3.426 2.821-4.09 8.432-1.414 11.975.757 1.002 1.733 1.844 2.342 2.942s.749 2.614-.134 3.508c-2.013-1.718-4.096-3.475-6.61-4.302-2.514-.827-5.596-.507-7.35 1.476-1.36 1.538-2.037 4.045-4.06 4.395-1.191-1.15-.904-3.132-.262-4.659.642-1.526 1.57-3.059 1.386-4.704-.252-2.242-2.416-3.696-4.364-4.833zM102.689 44.269c.216-1.08-1.83-1.804-1.852-.703.229.744 1.243 1.113 1.896.689l-.044.014zm5.61-13.626c-1.008-.833-2.502-1.025-3.688-.475.655 1.896 3.134 2.903 4.925 2l-.996-1.72-.241.195zm-5.23 2.452l-3.402-.75c-.968 1.557.954 3.28 2.588 4.11 1.27.646 3.226 1.068 3.77-.248.597-1.447-1.451-2.481-3-2.714l.044-.398zm3.79 10.075c-1.361-3.326-4.603-5.805-8.17-6.247 1.16 3.449 4.539 6.033 8.17 6.247zm8.609-13.498c-3.485 2.079-5.947 5.79-6.506 9.81-.56 4.02.795 8.263 3.58 11.214l-2.492 1.432c-.853-1.548-1.74-3.137-3.117-4.244-1.378-1.107-3.384-1.625-4.94-.788-3.198 1.722-2.32 7.42-5.605 8.97-1.616-1.785-.226-4.535.602-6.795 2.07-5.65-.493-12.614-5.73-15.575.677-1.962 3.51-1.57 5.505-2.145 3.26-.94 4.479-4.914 4.645-8.302.166-3.39-.087-7.127 2.025-9.782l2.528 11.813c.142.666.327 1.396.888 1.78a5346256736239887 5346256736239887 0 0 1 10.469-.432c.787 1.095-.694 2.353-1.852 3.044zM43.835 213.47l-2.937.915c2.412 2.734 7.665 1.793 8.977-1.608a6.973 6.973 0 0 0-3.033-1.631 8.105 8.105 0 0 1-2.992 2.347l-.015-.023zm-1.702-3.696c1.294-.924 1.794-2.587 2.143-4.138.468-2.08.816-4.188 1.041-6.308l2.041-.18c.15 2.221.316 4.501 1.25 6.524.934 2.022 2.82 3.76 5.045 3.857 1.598.069 3.106-.692 4.686-.939 1.58-.245 3.564.33 3.917 1.89-2.383.703-4.824 1.434-6.805 2.934-1.98 1.499-3.433 3.958-3.033 6.41.25 1.53 1.171 2.864 1.65 4.34.48 1.477.345 3.399-.99 4.189-1.224-3.409-5.042-5.608-8.633-5.15-3.59.46-6.67 3.404-7.49 6.931-1.389-2.59-1.117-5.98.668-8.314 1.288-1.683.775-4.228-.587-5.851-1.362-1.623-3.364-2.541-5.296-3.41.69-1.764 2.98-2.207 4.871-2.107 1.892.1 3.981.423 5.522-.678zM210.216 243.932l.265-1.76c-.584-.114-1.167-.23-1.75-.345-.55.87.31 2.216 1.331 2.082l.154.023zm7.981-8.78l-8.547-4.03c.866 3.5 5.297 5.589 8.547 4.03zm-1.864 6.635l-6.924-5.716c-1.027-.85-2.994-1.441-3.32-.15 2.334 3.329 6.193 5.538 10.244 5.866zm-3.217-13.321c.88 1.567 2.476 3.393 4.103 2.63a14.245 14.245 0 0 1 7.784-1.23c.358 2.612-3.215 3.743-4.808 5.842-1.545 2.034-1.064 4.982.078 7.267 1.142 2.285 2.857 4.277 3.753 6.669-3.39 1.087-5.828-3.636-9.29-4.462-2.814-.671-5.484 1.374-7.657 3.283l-3.828 3.362c-.895-3.433 2.706-6.911 1.678-10.306-1.332-4.395-8.855-4.241-10.144-8.65l9.591.136c2.558.035 3.403-3.478 2.972-6-.43-2.521-1.1-5.622.894-7.224l4.874 8.683zM122.317 228.513l-.258 1.692c.527.32 1.175.435 1.78.315a2.851 2.851 0 0 0-1.418-1.938l-.104-.069zm4.614.983c.5 1.281 2.107 2.001 3.395 1.522a28.455 28.455 0 0 0-3.382-5.595c-.518-.668-1.145-1.358-1.983-1.47-.837-.11-1.778.76-1.404 1.517l3.49 3.84-.116.186zm-4.452-7.15a12.49 12.49 0 0 1 3.95-7.14c.898 4.526 2.515 9.87 6.96 11.11l9.963 2.778a11.56 11.56 0 0 1-7.954 1.846c-1.504-.208-2.56 1.67-2.285 3.162.274 1.494 1.34 2.696 2.102 4.008.763 1.313 1.197 3.086.25 4.273-2.046-2.394-4.155-4.84-6.915-6.357-2.759-1.516-6.353-1.928-8.986-.202-.823.54-1.534 1.271-2.45 1.631-.915.36-2.168.18-2.575-.716 1.354-1.696 2.743-3.46 3.285-5.561.542-2.102.001-4.648-1.838-5.802a28.637 28.637 0 0 1-6.988-6.178c4.494 1.05 8.987 2.099 13.481 3.147zM47.477 45.908a4.967 4.967 0 0 1-2.311 3.099l1.136 5.156a16.848 16.848 0 0 0-5.883-3.823c-.194 1.84 1.453 3.27 2.709 4.63 1.256 1.36 2.161 3.708.735 4.888l3.991-2.298a4.445 4.445 0 0 0-1.333-3.263c1.843-1.07 2.517-3.747 1.399-5.562 1.116-.315 1.978-1.381 2.053-2.54a4.564 4.564 0 0 0-2.496-.287m10.017-3.401c-6.79 5.78-7.875 17.113-2.306 24.078-1.058 1.258-3.159.32-4.197-.953-1.037-1.275-1.913-2.954-3.524-3.281-2.106-.428-3.774 1.737-4.676 3.688-.903 1.95-1.977 4.273-4.099 4.61-.767-4.731 3.725-9.593 1.799-13.984-1.417-3.232-5.813-4.6-6.674-8.022 3.624.119 8.089-.253 9.582-3.558.554-1.226.546-2.621.528-3.966l-.158-12.155c2.517 1.243 2.847 4.609 3.117 7.404.27 2.794 1.5 6.218 4.302 6.402 2.191.143 4.752-1.814 6.306-.263M43.753 128.72c-1.07-.372-2.228.627-2.428 1.742-.2 1.115.277 2.233.812 3.23 1.476 1.969 5.34.492 5.128-1.96-1.597.279-1.981-2.48-3.512-3.012m-9.85 11.456c-.86-1.84 1.676-3.356 2.556-5.187 1.053-2.188-.467-4.771-2.298-6.366-1.832-1.594-4.101-2.84-5.235-4.987 2.134-.368 4.175.834 6.156 1.708 1.98.873 4.55 1.348 6.108-.156 2.124-2.052 1.324-6.8 4.232-7.321.525 4.338 1.604 9.447 5.64 11.122 3.296 1.367 8.147.259 9.694 3.475-2.268-.103-4.621-.097-6.696.822-2.076.92-3.805 2.983-3.648 5.248.168 2.432 2.38 4.476 2.162 6.904-1.691.299-3.232-1.04-4.206-2.453-.974-1.415-1.743-3.07-3.194-3.99-3.287-2.082-7.401.784-11.271 1.18M118.472 156.164l2.729.835c.69-1.054-.375-2.354-1.346-3.156l-6.4-5.286c-1.318.88-.227 2.959 1.059 3.886s2.945 2.162 2.459 3.67c-.28.87-.71 2.407.167 2.155a4.59 4.59 0 0 0 1.332-2.104m10.963 9.327c-2.933-.445-5.645-2.187-7.27-4.668-.895-1.368-3.054-1.127-4.37-.157-1.315.97-2.195 2.44-3.512 3.408-1.316.968-3.477 1.203-4.367-.167 1.209-1.602 2.444-3.255 2.98-5.19.539-1.932.226-4.24-1.29-5.556a69.548 69.548 0 0 0-6.758-5.184c-.284-.822.854-1.36 1.715-1.485l8.802-1.276c.715-.103 1.655-.083 1.903.596.498 1.364 1.253 2.8 2.612 3.31 1.36.508 3.257-.657 2.86-2.053-.395-1.397-2.287-1.474-3.672-1.91-3.73-1.17-4.614-5.956-4.848-9.858-.082-1.366-.106-2.902.833-3.898 1.854 1.635 2.163 4.344 2.789 6.736.626 2.392 2.205 5.034 4.677 5.047 2.333.013 5.266-2.155 6.539-.2-3.24 2.579-5.08 6.823-4.744 10.95.345 4.248 2.769 8.003 5.12 11.555M79.97 180.75l6.535 1.055c.37-2.505-.503-5.163-2.285-6.96-.208-.21-.443-.417-.733-.472-1.231-.233-1.15 1.851-.42 2.87.73 1.018 1.083 3.005-.17 3.011a2.72 2.72 0 0 0-2.604-1.242 2.618 2.618 0 0 0-.323 1.738m10.963 2.157c-2.091 3.222 3.626 7.233 2.142 10.775-1.624.16-2.606-1.664-3.441-3.065-3.235-5.428-10.981-7.57-16.545-4.578-.69-.976-.034-2.34.799-3.199.832-.857 1.896-1.63 2.153-2.797.379-1.722-1.166-3.209-2.554-4.296l-5.842-4.572c2.612-1.223 5.393 1.225 8.218 1.806 4.045.832 8.279-3.2 7.645-7.28 2.248.894 2.864 3.706 3.368 6.072s1.755 5.158 4.17 5.274c3.329.16 6.629.892 9.71 2.156-1.534 3.347-7.82.615-9.823 3.704M236.006 100.04l10.502 1.814a23.828 23.828 0 0 1-12.162 3.105l4.227 7.532c-1.316.92-2.922-.588-3.968-1.806-4.114-4.792-10.903-7.122-17.093-5.866-1.086-.332.098-1.81.828-2.68 1.737-2.068-.52-5.146-2.9-6.42-2.381-1.275-5.4-2.419-5.942-5.064a30.81 30.81 0 0 1 11.678 4.876c1.548 1.067 3.46-.846 4.099-2.614.64-1.768 1.332-4.015 3.194-4.276.892 4.784 2.74 10.57 7.537 11.398M12.73 81.938l-3.592.375c.16 1.443.339 2.946 1.13 4.164.792 1.218 2.393 2.042 3.729 1.472 2.1-1.367 1.195-5.325-1.29-5.644l.024-.367zM25.968 86.8c-2.563-.618-5.917-.919-7.202 1.383-1.756 3.145 2.544 7.597.255 10.377a17.784 17.784 0 0 0-8.828-7.524L4.549 99.31c-1.418-1.688-.856-4.249.045-6.26.9-2.012 2.1-4.099 1.723-6.27-.491-2.83-3.381-4.483-5.961-5.743l.129-2.31c3.715.871 8.517 1.321 10.479-1.953 1.032-1.723.92-4.1 2.405-5.454 2.226 1.59 1.447 5.113 2.678 7.554 1.949 3.862 8.25 3.936 9.92 7.926z" fill="#000"/><g transform="translate(0 158.178)"><mask id="d" fill="#fff"><use xlink:href="#c"/></mask><path d="M9.905 22.112c.92-.473 1.14-1.667 1.253-2.696.258-2.374.102-5.455-2.15-6.248.482 2.431-3.053 4.456-4.906 2.81l-.487 1.875c2.71.286 3.865 5.503 6.29 4.259M.459 32.596c-1.321-2.894 2.592-5.703 2.55-8.884-.022-1.697-1.166-3.135-2.032-4.595C.11 17.658-.48 15.706.533 14.344c2.955.084 5.514-2.333 6.565-5.095 1.05-2.763.922-5.814.778-8.767 1.35-.718 2.858.909 3.036 2.427.178 1.518-.301 3.109.185 4.558.62 1.849 2.69 2.894 4.64 2.933 1.95.039 3.818-.713 5.623-1.453.57 1.565-.736 3.196-2.151 4.074-1.415.877-3.104 1.471-4.056 2.838-1.143 1.643-.853 3.85-.515 5.823l1.186 6.925c-2.533 1.128-4.553-3.2-7.325-3.097-1.918.072-3.005 2.152-3.828 3.887-.822 1.734-2.354 3.683-4.212 3.199" fill="#000" mask="url(#d)"/></g><path d="M271.633 140.9c-.748-.315-1.118.91-1 1.712.844.604 2.207.223 2.615-.73a2.377 2.377 0 0 0-1.628-.965l.013-.018zm-8.26 8.404c-1.06-.67-.774-2.33-.045-3.35s1.794-1.89 2.028-3.122c.4-2.113-1.81-3.75-3.798-4.566-1.99-.817-4.361-1.7-4.926-3.776 2.494-.777 4.966 1 7.236 2.293 2.27 1.292 5.69 1.894 7.053-.335.583-.956 1.013-2.492 2.113-2.283 1.259 3.683 3.259 7.44 6.76 9.137 3.717 1.801 8.91 1.243 11.159 4.705a12.875 12.875 0 0 1-8.433-1.477c-1.281 1.105.199 3.088 1.549 4.106 1.35 1.018 2.65 3.206 1.218 4.104-3.022-3.007-6.165-6.096-10.144-7.628-3.978-1.533-9.048-1.089-11.77 2.192zM352.702 393.355l5.197 1.825c.208 2.02 2.712 3.42 4.542 2.538-.627 2.48-3.296 4.26-5.827 3.883-1.347-1.696-2.7-3.398-4.264-4.895a24.052 24.052 0 0 0-12.637-6.315c.028-2.1 3.102-2.476 5.054-1.701 1.952.775 4.292 1.952 5.947.66 3.182-2.483 7.775-1.138 11.542.309-2.055.54-4.11 1.083-6.164 1.624l-1.447-1.964c-.937.146-1.924.313-2.652.92-.73.607-1.047 1.813-.403 2.509.29.313.709.466 1.112.607M182.006 53.246c.42.762 1.593.961 2.24.38.035-1.219-.685-2.542-1.877-2.799-1.192-.257-2.52 1.082-1.972 2.171l1.566.377.043-.129zm11.059 13.157c-4.941-5.43-10.791-11.284-18.133-11.277 1.473-2.341.798-5.779-1.451-7.388-1.993-1.426-5.323-2.143-5.218-4.591 2.544-.223 4.638 1.802 6.769 3.21 2.13 1.408 5.552 1.984 6.8-.245.69-1.233 2.722-.673 3.473.523.752 1.196.796 2.706 1.389 3.989 1.03 2.232 3.48 3.379 5.74 4.347l8.49 3.637c-3.803 1.138-8.096.507-11.41-1.676-.33 1.8 1.258 3.301 2.519 4.628 1.26 1.327 2.305 3.528 1.032 4.843zM338.173 393.528a4.202 4.202 0 0 1-3.55.942c-2.565 3.031-3.436 7.411-2.224 11.193 1.27-2.05 4.15-2.447 6.495-1.885 2.346.562 4.476 1.838 6.829 2.367 1.123.253 2.387.384 3.16 1.238-5.67 3.055-12.56-2.297-18.904-1.19-1.774-1.255-1.354-4.013-.378-5.954.976-1.94 2.36-3.962 1.899-6.085l5.49-2.733 1.183 2.107M254.618 402.062c1.256 1.114 3.648-.29 3.288-1.93-.93-.336-1.968-.671-2.882-.292-.914.38-1.334 1.846-.479 2.344l.073-.122zm1.984 1.68c-.969.199-1.937-.27-2.816-.725l-10.29-5.33a24.662 24.662 0 0 1 9.167-5.131 8.632 8.632 0 0 1-4.818 4.999c.155 1.534 2.275 1.96 3.737 1.474 1.462-.487 2.864-1.474 4.39-1.258.9.127 1.682.66 2.427 1.18l3.291 2.295c.595.415 1.233.889 1.411 1.592.168.663-.12 1.347-.404 1.97-.644 1.419-1.288 2.838-1.93 4.257l-2.027.103a8.794 8.794 0 0 1 1.984-6.303c-1.003-1.13-2.642.575-4.122.878zM215.542 50.577c1.308 6.57 7.639 11.768 14.337 11.772 1.495.001 3.718.675 3.132 2.05-5.99 1.064-12.415-.668-17.058-4.599-1.482-1.254-2.844-2.833-3.152-4.75-.308-1.918.825-4.158 2.74-4.473M143.553 279.115a147.65 147.65 0 0 1-21.768-20.852c-.445-.523-.396-1.394.105-1.864 8.945 5.57 15.632 14.075 21.663 22.716M261.031 96.574a27.622 27.622 0 0 0 11.915 8.322c.75.266 1.55.525 2.073 1.125.524.599.601 1.666-.063 2.105-8.569-2.41-16.284-7.751-21.557-14.922 1.174-1.038 3.054-.824 4.38.012 1.323.835 2.251 2.153 3.252 3.358M401.436 117.312a46.074 46.074 0 0 1-17.446-6.858c-1.615-1.058-3.202-2.237-5.056-2.774 1.944-1.667 4.92-.705 7.222.417a100.611 100.611 0 0 1 15.28 9.215M19.818 69.726L30.63 82.212c1.593 1.84 3.285 3.964 3.098 6.39a95.435 95.435 0 0 1-16.296-19.356c.355-.918 1.742-.264 2.387.48M252.56 392.428l1.36-3.054c-1.414-.77-3.073.271-4.588.816-1.516.545-3.901-.182-3.52-1.747 5.78-3.124 13.933-.426 16.707 5.531a20.906 20.906 0 0 0-9.958-1.546M584.531 130.355a402.87 402.87 0 0 1-20.415-4.395c-1.686-.409-3.709-1.198-3.885-2.924 4.535-.678 8.558 2.991 13.087 3.706 2.07.327 4.194.023 6.272.291 2.078.268 4.284 1.333 4.941 3.322M319.12 391.407l-.456-2.172a37.633 37.633 0 0 1 15.206-3.449c1.146 1.246-.997 2.842-2.657 3.177l-12.093 2.444M278.555 374.21c.196-1.335 2.247-.885 3.336-.09l9.548 6.99c-.805 1.1-2.426 1.322-3.716.883-1.29-.44-2.328-1.396-3.325-2.326l-5.843-5.457M238.201 383.403l-1.068-3.787a147.345 147.345 0 0 1 13.36 3.928c.354 1.113-1.398 1.563-2.552 1.383l-9.74-1.524M553.403 151.721c-7.946.994-15.987-.13-23.916-1.254-.741-.105-1.661-1.01-.988-1.339 8.354.172 16.694 1.04 24.904 2.593M55.247 93.95c.444.675.867 1.638.294 2.207A280.614 280.614 0 0 1 40.97 74.456c.16-.753 1.313-.205 1.737.439L55.247 93.95M576.327 213.467l17.63-.755c.995-.042 2.266.095 2.563 1.047a197.026 197.026 0 0 1-22.158 1.426c-.593-.888.898-1.672 1.965-1.718M220.203 402.853c2.821-.844 5.77.593 8.363 1.988a37.618 37.618 0 0 0 5.982 4.595c-.35.932-1.717.738-2.63.345a53.181 53.181 0 0 1-11.715-6.928M615.887 135.889c-.9.583-2.13-.011-2.815-.836-.684-.826-1.094-1.873-1.883-2.6-2.355-2.17-6.984-.642-8.728-3.328 2-1.443 4.823-1.311 7.038-.226 2.214 1.085 3.922 2.976 5.42 4.935.468.61.94 1.285.968 2.055M132.707 167.982a63.434 63.434 0 0 1 17.158 14.46 64.653 64.653 0 0 1-17.158-14.46M501.712 94.8c.625.051 1.29.117 1.786.501.35.27.582.688.625 1.128-1.512 1.548-3.647 2.672-5.788 2.362-2.142-.31-4.036-2.45-3.541-4.557 2.305.19 4.613.377 6.918.566M675.783 257.224l-8.272-5.052c5.09-.51 10.374 1.942 13.27 6.161-1.607.776-3.475-.179-4.998-1.109M208.146 45.657a58.265 58.265 0 0 1-10.757-8.09 33.042 33.042 0 0 1 14.633 8.494c-1.042.926-2.673.299-3.876-.404M274.289 38.992a39.566 39.566 0 0 1-1.757-1.107c-.433-.29-.776-1.093-.26-1.17a29.021 29.021 0 0 1 14.628 7.14 40.35 40.35 0 0 1-12.611-4.862M217.015 168.321a177.92 177.92 0 0 1-9.54-6.424c-2.33-1.681-4.749-3.596-5.608-6.338a79.608 79.608 0 0 1 15.148 12.762M317.545 383.11c-2.522-.73-5.044-1.462-7.565-2.194 1.262-2.399 4.873-1.507 7.275-.248 1.187.621 2.48 1.383 2.85 2.673.368 1.287-1.035 2.931-2.18 2.234a2.36 2.36 0 0 1-.38-2.464M115.216 121.65c5.248 1.8 9.98 5.08 13.507 9.363a36.55 36.55 0 0 1-13.507-9.362M113.066 84.974c-4.737.632-9.735-1.186-12.959-4.714a24.269 24.269 0 0 1 12.96 4.714M252.992 69.241a45.585 45.585 0 0 1-15.41-7.842 27.73 27.73 0 0 1 15.41 7.842M281.469 50.9c-3.214-1.576-6.426-3.152-9.639-4.73-1.191-.583-2.567-1.461-2.503-2.787 4.868.624 9.413 3.438 12.142 7.518M49.863 297.127l-13.57-5.278c-.462-.18-.535-.935-.115-1.2 5.17.262 10.204 2.644 13.685 6.478M188.91 405.44c-1.859 3.074-5.975 4.564-9.369 3.392l1.314-2.533c.627 1.298 2.65.871 3.714-.102 1.065-.972 1.957-2.355 3.384-2.563.32.602.637 1.204.956 1.806M548.793 238.766c-1.313 1.074-3.207 1.39-4.797.797 1.751-3.32 6.326-4.79 9.683-3.11a8.575 8.575 0 0 1-4.79 2.326l-.096-.013zM180.628 85.7a39.584 39.584 0 0 1 13.058 7.058c.326.267.68.7.457 1.059a44.214 44.214 0 0 1-13.515-8.117M580.831 94.245c1.67-1.635 4.367-2.11 6.496-1.148 1.162.525 2.185 1.519 2.416 2.774a14.652 14.652 0 0 1-8.912-1.626M68.697 21.777a43.064 43.064 0 0 1 12.059 8.16c-4.861-1.05-9.276-4.038-12.059-8.16M503.852 7.214c-1.515 1.403-3.91 1.758-5.767.855 1.46-2.888 5.039-4.521 8.177-3.73-.864.875-1.73 1.75-2.593 2.626l.183.249zM591.76 228.364a23.93 23.93 0 0 1-6-1.274c-2.563-.901-5.027-2.291-6.73-4.408a42.228 42.228 0 0 1 12.73 5.682M302.981 70.486a23.993 23.993 0 0 1 11.882 6.434 22.195 22.195 0 0 1-11.882-6.434M296.66 37.284a46.8 46.8 0 0 1 10.094 2.38c.9.32 1.941.865 1.99 1.82a24.336 24.336 0 0 1-12.084-4.2M183.249 194.623c2.14.9 3.633 3.162 3.62 5.484l-6.296-5.248c-1.022-.852-1.868-2.806-.585-3.16a10.532 10.532 0 0 0 3.37 2.66l-.11.263zM321.135 376.279c-1.043-.23-2.087-.458-3.132-.687-.34-1.677 1.986-2.858 3.558-2.181 1.57.677 2.423 2.353 3.149 3.903-.528.35-1.056.7-1.583 1.052-.668-.664-1.334-1.33-2-1.993l.008-.094zM194.31 218.395a32.306 32.306 0 0 1-8.4-4.935c-.978-.796-1.959-1.732-2.233-2.963a30.54 30.54 0 0 1 10.632 7.898M204.45 164.36l12.145 9.795c-5.026-1.71-9.41-5.244-12.145-9.794M346.399 444.161c4.03.002 8.015 1.943 10.5 5.115a26.667 26.667 0 0 1-10.5-5.115M63.482 151.616a23.38 23.38 0 0 1 9.108 10.239 36.617 36.617 0 0 1-9.108-10.24M297.949 58.95c4.386.106 8.677 2.284 11.352 5.761a41.88 41.88 0 0 1-11.352-5.76M655.275 229.808a15.19 15.19 0 0 1-8.202-6.46c3.509.793 6.608 3.235 8.202 6.46M323.092 403.974a11.87 11.87 0 0 1-8.25 2.892c-.883-.038-1.893-1.287-1.031-1.482a33.815 33.815 0 0 1 9.28-1.41M274.615 32.005c3.666-.18 7.376 1.5 9.66 4.375a18.892 18.892 0 0 1-9.66-4.376M103.298 267.954a21.05 21.05 0 0 1 7.262 10.042 25.045 25.045 0 0 1-7.262-10.042M629.98 222.512c3.47.688 6.454 3.418 7.445 6.814a19.532 19.532 0 0 1-7.444-6.814M75.055 67.204a17.439 17.439 0 0 1 8.924 6.073c-3.686-.535-7.074-2.84-8.924-6.073M224.468 111.54a14.108 14.108 0 0 1 7.697 2.896c.607.47 1.193 1.4.618 1.907a28.3 28.3 0 0 1-8.315-4.804M99.29 127.97a8.304 8.304 0 0 1 3.395 5.511 30.424 30.424 0 0 1-7.42-9.914c1.381 1.412 2.764 2.823 4.146 4.234l-.12.17zM306.826 47.125a16.778 16.778 0 0 1-9.175-3.054c-.412-.292-.858-.725-.738-1.215a25.628 25.628 0 0 1 9.913 4.269M593.058 129.144c2.656-.72 5.731.834 6.728 3.399l-6.384-1.744a2.086 2.086 0 0 1-.344-1.655M225.561 225.58a16.694 16.694 0 0 1-9.224-3.406c3.377-.359 6.891.938 9.224 3.406zM85.041 88.566c-1.373-.532-2.316-2.016-2.21-3.486a10.303 10.303 0 0 1 5.892 5.481 6.078 6.078 0 0 1-3.671-1.897l-.01-.098zM517.605 149.67c-3.244 1.213-6.99 1.008-10.083-.552a15.745 15.745 0 0 1 10.083.551M207.42 381.212c-1.324 2.033-4.138 2.307-6.56 2.374 1.01-2.284 3.898-3.534 6.255-2.707l.304.333zM327.747 74.933a4.312 4.312 0 0 1 2.978 2.924c-2.788-.7-5.371-2.2-7.36-4.276a5.635 5.635 0 0 1 4.366 1.196l.016.156zM119.497 291.739l-.621-2.885c2.419 1.549 3.917 4.435 3.793 7.305a12.791 12.791 0 0 1-3.192-4.424l.02.004zM392.688 122.134c-.489-.357-.107-1.225.483-1.362.59-.136 1.18.184 1.701.492l4.246 2.51c-2.168.96-4.947.262-6.407-1.606l-.023-.034zM26.285 94.04c1.38.786 2.013 2.665 1.391 4.125a12.438 12.438 0 0 1-4.04-6.476 4.468 4.468 0 0 1 2.782 2.069l-.133.283zM201.842 96.933l3.893 3.035a12.642 12.642 0 0 1-8.135-4.308 5.843 5.843 0 0 1 4.09 1.454l.152-.18zM310.777 375.94a7.435 7.435 0 0 1-3.59-1.863c2.224-1.348 5.585.132 6.092 2.68-.794.59-2.115.175-2.428-.764l-.074-.052zM282.984 410.475c-1.314.231-2.732-.62-3.146-1.888 2.032-.76 4.43-.454 6.206.792A4.685 4.685 0 0 1 283 410.53l-.015-.055zM218.307 182.986a21.398 21.398 0 0 1 7.42 4.582c-3.026-.164-5.917-1.949-7.42-4.582M274.833 401.563c.595-1.133 2.497-1.197 3.167-.106l-1.69 2.995c-.606.397-1.47-.115-1.702-.801-.23-.687-.028-1.434.176-2.129l.05.041zM558.548 221.77c-1.048.524-2.285-.685-2.262-1.856 2.022.043 4.039.355 5.98.925a5.11 5.11 0 0 1-3.66 1l-.058-.069zM256.201 33.751c-1.577.303-3.509.483-4.495-.784 1.563-1.262 4.031-1.22 5.55.093l-.868.987-.187-.296zM34.072 107.362c-1.816-1.058-2.938-3.202-2.772-5.296a15.063 15.063 0 0 1 3.596 4.375c.289.53.539 1.206.197 1.702-.341.497-1.401.102-1.101-.42l.08-.36zM225.483 54.499c-2.037-.373-3.803-1.96-4.391-3.945a21.506 21.506 0 0 1 6.042 4.39c-.48.435-1.368.236-1.617-.36l-.034-.085zM305.742 54.599a11.254 11.254 0 0 1-5.093-3.606c2.275.009 4.493 1.373 5.528 3.399l-.435.207zM50.938 37.788c-.759-.644-1.064-1.772-.733-2.71a7.304 7.304 0 0 1 3.74 3.881 3.275 3.275 0 0 1-3.048-1.097l.041-.074zM66.238 32.211c-1.091.153-2.032-1.259-1.473-2.207a10.653 10.653 0 0 1 4.578 4.18 3.676 3.676 0 0 1-3.046-1.679l-.06-.294zM302.077 390.25c-2.034.444-4.288-1.017-4.714-3.055 1.896.147 3.685 1.28 4.63 2.93l.084.126zM685.045 264.61a8.007 8.007 0 0 1-3.786-2.135c1.669-1.236 4.5.159 4.536 2.236l-.75-.101zM198.627 70.013l5.747 5.745c-2.745-.724-5.022-3-5.747-5.745M266.248 217.875c.403.037.428.702.088.921-.34.22-.79.115-1.17-.022a9.002 9.002 0 0 1-3.968-2.835 8.142 8.142 0 0 1 4.957 2.025l.093-.089zM72.235 1.167a6.271 6.271 0 0 1 2.964 3.93c-1.887-.201-3.418-2.107-3.207-3.993l.243.063zM563.31 152.357a6.43 6.43 0 0 1 5.043.771c-1.657.976-3.93.758-5.371-.515l.329-.256zM126.319 244.786a17.974 17.974 0 0 1-4.15-4.062 6.691 6.691 0 0 1 4.447 3.805l-.297.257zM266.47 374.917c-.259 1.054-1.908 1.387-2.554.515a6.814 6.814 0 0 1 4.695-1.628c.445.736-.786 1.392-1.62 1.19l-.522-.077z" fill="#000"/><path d="M360.956 394.01c-.656-.156-.887-1.163-.364-1.59a5.876 5.876 0 0 1 3.127.41c-.563.897-1.725 1.37-2.753 1.12l-.01.06zM328.243 380.206c-.722 1.028-2.06 1.584-3.3 1.372.478-.836 1.009-1.724 1.884-2.122.875-.4 2.166.01 2.284.966l-.868-.216zM146.136 236.635c-.373.702-1.447.72-2.08.24s-.931-1.27-1.199-2.018a4.04 4.04 0 0 1 2.977 1.723l.302.055zM281.853 22.83c.82.573-.15 2.004-1.138 1.853-.988-.151-1.616-1.108-2.117-1.974l3.054.51.2-.388zM188.997 371.005a12.03 12.03 0 0 1-4.023-1.088c1.152-1.041 3.28-.592 3.913.826l.11.262zM148.462 45.982l-2.05-2.549c.873.026 1.831.086 2.464.688.632.602.532 1.935-.326 2.097l-.088-.236zM491.072 4.53c1.026-.403 2.302-.028 2.946.866-.668.32-1.392.65-2.121.52-.73-.128-1.373-.945-1.037-1.605l.212.219zM131.742 95.552a8.227 8.227 0 0 1-2.938-2.545c1.495-.24 3.073.897 3.322 2.39l-.384.155zM263.264 204.118l1.316 1.503a6.01 6.01 0 0 1-3.976-2.252 2.431 2.431 0 0 1 2.519.859l.141-.11zM276.31 10.445c-1.203.207-2.504-.463-3.034-1.563 1.24-.242 2.6.35 3.269 1.423l-.234.14zM328.476 408.421c-.731.29-1.82-.214-1.648-.98a3.39 3.39 0 0 1 2.31-.251c.572.375.002 1.483-.636 1.24l-.026-.009zM695.139 247.356c.643-.419 1.655.175 1.603.94a3.568 3.568 0 0 1-2.325.272c-.57-.384-.002-1.492.642-1.255l.08.043zM12.351 40.058l-1.23-2.71c1.225-.138 2.23 1.482 1.561 2.518l-.33.192zM141.599 41.024c-.887-.214-.105-1.78.775-1.54s1.239 1.27 1.463 2.155c-.781.208-1.678-.343-1.846-1.133l-.393.518zM334.638 399.312l1.128-1.545c.629.31 1.07.969 1.118 1.668a1.77 1.77 0 0 1-2.07.075l-.176-.198zM322.718 106.037c1.183-1.019 3.163-.92 4.238.212l-4.154-.181-.084-.031zM367.777 403.804c.23-.96 1.647-.781 2.547-.374.266 1.073-1.643 1.202-2.383.38l-.164-.006zM171.907 141.242c-.88.185-1.737-.888-1.36-1.706.648.123 1.355.28 1.765.796.411.517.224 1.497-.433 1.563l.028-.653zM154.237 407.464c-.753-.454-.949-1.616-.387-2.292.578.506 1.204 1.11 1.21 1.877.004.768-1.105 1.411-1.547.782l.724-.367zM144.494 203.16a2.697 2.697 0 0 1 1.39 1.898c-.777-.125-1.657-.318-2.045-1.004-.387-.685.399-1.798 1.047-1.35l-.392.455zM301.943 451.414c-.809.867-2.78.641-2.624-.535a2.527 2.527 0 0 1 2.367.466l.257.07zM379.308 425.221c.497.535.509 1.45.026 1.998l-1.681-1.68a2.2 2.2 0 0 1 1.67-.31l-.015-.008zM117.817 63.829c-1.004-.325-1.685-1.44-1.516-2.481 1.041.393 1.75 1.527 1.646 2.635l-.13-.154zM28.126 288.752a2.747 2.747 0 0 1-2.38-1.662c1.082-.11 2.2.54 2.637 1.536l-.257.126zM451.962 127.728c-.596 0-.913-.923-.444-1.29.714.216 1.565.594 1.611 1.34.046.744-1.506.764-1.185.091l.018-.14zM499.73 150.233a2.047 2.047 0 0 1-1.672-.267 2.029 2.029 0 0 1 1.676-.94c.707.024.718 1.35.012 1.386l-.015-.18zM147.511 290.025c-.905.433-1.817-.679-1.968-1.67.92.134 1.735.83 2.011 1.72l-.043-.05zM677.553 244.127l-1.491-1.08c.426-.976 2.277 0 1.714.903l-.223.177zM140.877 134.523c-.398-.302.277-.947.705-.69.43.259.485.847.494 1.347-.33.586-1.455-.012-1.153-.614l-.046-.043zM251.543 25.798a1.736 1.736 0 0 1 1.558 1.008c-.5.91-2.217-.177-1.607-1.017l.049.009zM343.846 399.123c-.595-.11-.116-1.175.472-1.032.589.143.842.823 1 1.407-.434.394-1.261.13-1.385-.445l-.087.07zM567.739 407.011c-2.695-.672-5.042-2.623-6.194-5.15 2.683.701 5.015 2.64 6.194 5.15M635.57 419.912l2.19-.832c-.035 2.48-3.227 4.28-5.368 3.029a6.11 6.11 0 0 1 3.155-2.217l.024.02zM533.854 115.473c.67-.199 1.221.911.657 1.326-.497-.013-1.083-.075-1.334-.506-.25-.43.409-1.09.697-.684l-.02-.136zM671.038 427.997l2.96-.77c-.468 2.275-3.621 3.459-5.471 2.055l2.493-1.344.018.059zM621.143 410.813c-1.03.7-2.603.408-3.312-.617 1.13-.692 2.68-.62 3.74.174l-.428.443zM681.696 421.889c.621-.285 1.211.849.622 1.194-1.617.33-3.67.488-4.544-.912l3.884.189.038-.471zM180.679 472.36c1.133-.168 2.063 1.399 1.374 2.313-1.716-.767-3.432-1.534-5.148-2.303.167-1.447 2.401-1.014 3.595-.178l.179.168zM224.881 472.34c.395-.3.808.547.422.859-.386.311-.954.152-1.42-.02l-4.121-1.535a6.255 6.255 0 0 1 4.915.594l.204.103zM553.034 372.718c-.173-.785 1.433-.534 1.344.265-.088.798-.992 1.195-1.758 1.436-.465-.476-.296-1.398.308-1.677l.106-.024zM669.649 353.75c-.79-.243-1.643-.531-2.1-1.22-.457-.69-.17-1.877.653-1.955a18.62 18.62 0 0 0 9.573.948 11.534 11.534 0 0 1-.661 4.52l-7.465-2.293M639.768 338.551l-5.356.15-5.002.138c-.678-1.269.777-2.669 2.155-3.082 2.963-.888 6.483.223 8.203 2.794zM625.705 341.387l-1.946-1.745c2.72.07 5.395 1.237 7.297 3.183a7.074 7.074 0 0 1-5.156-1.649l-.195.211zM651.77 348.79c.602.497.844 1.386.576 2.119-1.679-.139-3.226-1.329-3.792-2.916l1.708-1.039c.554.552 1.11 1.104 1.663 1.657l-.155.179zM659.302 360.686c1.244-.763 3.018-.508 3.996.575-1.301.765-3.079.613-4.23-.364l.234-.211zM473.906 288.602a15.209 15.209 0 0 1-10.198-3.77 19.954 19.954 0 0 1 10.198 3.77M644.9 337.557a5.423 5.423 0 0 1 3.587.983c-1.326.945-3.408.551-4.296-.814l.708-.169zM667.01 360.214a4.35 4.35 0 0 1 2.314 1.82c-.942.429-2.137.223-2.881-.497-.654-.205-.123-1.457.479-1.13l.088-.193zM377.925 296.89l-7.777-3.887c2.059-1.956 5.342-1.294 8.151-.88 4.715.698 9.588.303 14.13-1.142-.857 3.496-4.489 6.083-8.074 5.749-1.638-.153-3.515-.772-4.771.292-.45.38-1.131.132-1.659-.132M461.193 282.699c.996-.061.777 1.948-.192 1.706-.968-.242-.354-2.093.58-1.742l-.388.036zM343.151 280.69c-5.96-2.676-11.922-5.352-17.882-8.03-1.14-.51-2.48-1.81-1.637-2.73A87.679 87.679 0 0 1 350 281.279c-1.988 1.347-4.66.394-6.849-.59M324.184 281.468c-1.07-.915-1.727-2.993-.389-3.43 8.315 5.894 20.568 4.265 28.238 10.978-2.611 1.613-5.78-.61-8.565-1.902-6.144-2.85-14.135-1.245-19.284-5.646M198.012 292.799a2.763 2.763 0 0 1 1.405 1.93c-1.583.186-3.23-.793-3.823-2.272l2.429.337-.011.005zM336.558 287.76l11.33 6.478c-4.66 1.06-9.88-1.925-11.33-6.478zM220.513 272.46c-.675.514-1.081-1.179-.256-1.375.825-.196 1.53.583 2.02 1.274-.491.489-1.386.482-1.87-.014l.106.115zM415.543 372.933l-7.673-3.64-2.773-1.314c5.062-1.401 10.912.854 13.724 5.29-.958.64-2.237.158-3.278-.336M693.529 94.081c.14-1.222 1.52-2.138 2.7-1.792-.404 1.125-1.633 1.892-2.822 1.762l.122.03zM449.202 399.496c.593.09.585 1.07.069 1.379-.515.307-1.175.134-1.734-.086-1.157-.457-2.341-1.207-2.676-2.405-.336-1.198.77-2.726 1.952-2.334a4.47 4.47 0 0 1 2.343 3.409l.046.037zM425.474 467.364c-.016 2.45-3.66 3.097-5.767 1.847-2.107-1.251-3.576-3.494-5.86-4.382 1.598-1.367 4.047-1.076 5.969-.224 1.922.852 3.637 2.18 5.658 2.759M370.134 470.077c-.698-.377-1.397-.858-1.715-1.585a2.125 2.125 0 0 1 .27-2.122 21.746 21.746 0 0 1 9.81 5.107 13.217 13.217 0 0 1-8.365-1.4M385.387 467.419l-2.038-1.135c-.655-.365-1.337-1.341-.675-1.693 3.016.053 6.022.643 8.834 1.733.091 1.277-1.253 2.284-2.533 2.322-1.28.037-2.469-.604-3.588-1.227M354.046 471.832c-3.793.498-7.774-.65-10.721-3.09 3.776-1 8.056.234 10.72 3.09M401.7 470.802c-.7-1.512-.258-3.469 1.024-4.532 1.282-1.064 3.286-1.138 4.643-.172.647.286.55 1.44-.137 1.612l-5.53 3.092M335.798 470.112c.934.366 1.336 1.678.767 2.504-2.82-.088-5.576-1.444-7.368-3.623a8.487 8.487 0 0 1 6.45 1.318l.151-.199zM318.722 471.635c-1.93 1.668-5.508.375-5.926-2.142a6.807 6.807 0 0 1 5.25 1.617l.676.525zM299.976 472.136c-.83.254-1.818-.318-2.01-1.166 1.786-1.026 4.342-.346 5.383 1.431a4 4 0 0 1-3.292-.037l-.08-.228zM405.393 471.09c-.178-1.414 1.359-2.75 2.734-2.375.96 1.302-1.127 3.333-2.402 2.337l-.332.038zM441.194 462.975a7.685 7.685 0 0 1-3.364-1.497c4.606-1.046 9.611-.213 13.63 2.27 1.035.639 2.064 1.404 3.274 1.533s2.626-.726 2.548-1.94a6.307 6.307 0 0 1-4.242-2.53c4.296-.661 8.89 1.279 11.41 4.82l10.929 5.036-25.222.072c-1.115.003-2.326-.025-3.198-.72-.872-.695-1.024-2.321-.016-2.798.452-.214.422-1.003-.045-1.181l-5.257-.684 3.824 4.013-4.397-.656c-6.037-.901-12.502-2.006-16.867-6.272 5.283-2.207 11.229 4.007 16.63 2.107.38-.415.523-1.034.363-1.573M398.738 466.66c.094.897-1.183 1.785-1.68 1.03-.36-.717.876-1.105 1.666-.96l.014-.07zM370.489 139.932a4.383 4.383 0 0 1 3.959.071c-.828 1.21-2.847 1.322-3.804.211l-.155-.282zM393.065 470.955c-.49.139-.606-.803-.136-1 .471-.196.988.11 1.405.403.383.592-.792 1.163-1.256.631l-.013-.034z" fill="#000"/></g></svg>