<svg xmlns="http://www.w3.org/2000/svg" viewBox="0 0 588.77 92.67"><defs><style>.a{fill:#fff}</style></defs><title>propublica-logo-dark.min3</title><path class="a" d="M29.68 33c-4.27 0-5.68.6-5.68 2.49V57.2a29.54 29.54 0 0 0 6.15.65c12.53 0 12.74-10.09 12.74-12.78C42.93 33.46 32.8 33 29.68 33z"/><path class="a" d="M25.34 12.23A45.48 45.48 0 0 0 0 19.89v72.78h55a45.69 45.69 0 0 0-29.66-80.44zm7.24 48.53c-2.17 0-4.27-.15-8.54-.51v13.29c0 5.15 1.88 5.59 4.78 5.59h3.62v2.69c-4.05-.22-8.11-.44-12.16-.44-3.62 0-7.24.22-10.86.44v-2.69h1.74c2.82 0 4.85-.36 4.85-5.44V37.74c0-5-2.1-5.45-4.92-5.45a6.24 6.24 0 0 0-1.23.08v-2.69c2.9.22 4.92.43 7.89.43h4.7c2.75 0 5.29-.21 8.76-.21 8.33 0 13.25 1.23 16.72 5.81a14 14 0 0 1 2.75 8.79c0 7.04-3.62 16.26-18.1 16.26zM87.03 20.02l5.64-3V14.6l-6.65 3.54 1.01 1.88z"/><path class="a" d="M92 32.79a2.37 2.37 0 0 1-3.21-1l-6.74-12.61A2.37 2.37 0 0 1 83 16l9.64-5.13V0H0v13.19a51.42 51.42 0 0 1 68.07 16.15 15.44 15.44 0 0 0 6.72-1.92 13.66 13.66 0 0 0 6.22-6l5.44 10.23A13.66 13.66 0 0 0 78 33.4a15.52 15.52 0 0 0-5.3 4.43 51.45 51.45 0 0 1-9.45 54.85h29.42V32.42zM116.34 77.34v-4.83h2.84c3 0 4.77-.25 4.77-5.45V25.54c0-5.09-1.83-5.46-4.85-5.46a6.46 6.46 0 0 0-1.27.08l-1 .18v-5l.9.07 1.76.14c2.43.19 4.53.36 7.3.36h5.43c1.48 0 2.92-.05 4.43-.11 1.74-.07 3.55-.13 5.69-.13 5.31 0 9 .44 12 1.41a15.6 15.6 0 0 1 8 5.63 17.17 17.17 0 0 1 3.35 10.66 19.93 19.93 0 0 1-4.38 13c-3.75 4.4-9.6 6.64-17.36 6.64-2.42 0-4.73-.15-9-.51v14.39c0 5.36 1.69 5.62 4.68 5.62h5v4.82h-.88c-4.6-.25-9.34-.5-14-.5-4.15 0-8.39.25-12.49.5zm18.56-30a32.33 32.33 0 0 0 6.27.6C150.25 47.93 155 43.12 155 34c0-6-2.51-13.08-14.47-13.08-5.68 0-5.68 1-5.68 2v24.41zM192.37 77.19h-.88c-3.61-.2-6.87-.36-10.19-.36s-7 .19-10.19.36h-.88v-4.83h.84c4.62 0 5.43-1.1 5.43-3.41V35.51c0-1.72-.75-2.26-5.43-2.26h-.84v-5.11l.91.08c3.44.3 6.45.44 9.19.44 1.71 0 3.22-.05 5-.11 2.16-.07 4.6-.16 8-.16 5.42 0 9.63 1.38 12.53 4.1a12 12 0 0 1 3.75 8.86c0 5.61-3 9.68-8.85 12.13a11.64 11.64 0 0 1 5.06 5.29l4.14 8.4c2.39 4.8 4.35 5.19 6.49 5.19h.84v4.77h-5.6c-2.76 0-4.81-.18-6.51-1.06s-2.91-2.38-4.05-5L196.23 60c-1.51-3.43-3.16-4-7.35-4h-2.78v13.22c0 2.67.4 3.15 5.43 3.15h.84v4.82zM186.1 51h1.11c7.81 0 12.93-.63 12.93-9.08a8.37 8.37 0 0 0-1.44-5c-1.59-2.31-3.7-3-9-3-3.28 0-3.58.27-3.58 1V51zM241.2 77.75c-6.56 0-12.49-2-16.71-5.67-5.16-4.47-7.78-11.12-7.78-19.77 0-4.77 1-11.61 5.58-17.11 4.23-5 10.71-7.71 18.73-7.71 8.67 0 15.31 2.81 19.73 8.34a26.64 26.64 0 0 1 5.37 16.65c0 4.8-.93 11.68-5.38 17.18s-10.9 8.09-19.54 8.09zm.61-45.21a12.47 12.47 0 0 0-11.34 6.22c-2.7 4.44-3.26 10.11-3.26 14.09 0 5.32 1.18 10.13 3.32 13.55a12 12 0 0 0 10.75 6 12.73 12.73 0 0 0 10.68-5c2.51-3.28 3.83-8.08 3.83-13.9 0-7.35-1.46-12.89-4.35-16.46a12 12 0 0 0-9.62-4.5zM268.15 77.34v-4.83H271c3 0 4.77-.25 4.77-5.45V25.54c0-5.09-1.83-5.46-4.85-5.46a6.46 6.46 0 0 0-1.27.08l-1 .18v-5l.9.07 1.76.14c2.43.19 4.53.36 7.29.36h5.4c1.48 0 2.92-.05 4.43-.11 1.74-.07 3.55-.13 5.69-.13 5.31 0 9 .44 12 1.41a15.6 15.6 0 0 1 8 5.63 17.17 17.17 0 0 1 3.35 10.66 19.93 19.93 0 0 1-4.38 13c-3.75 4.4-9.6 6.64-17.37 6.64-2.42 0-4.73-.15-9-.51v14.39c0 5.36 1.69 5.62 4.68 5.62h5v4.82h-.88c-4.6-.25-9.34-.5-14-.5-4.15 0-8.39.25-12.49.5zm18.56-30a32.33 32.33 0 0 0 6.27.6c9.08 0 13.88-4.82 13.88-13.92 0-6-2.51-13.08-14.47-13.08-5.68 0-5.68 1-5.68 2v24.39zM375.74 77.2v-4.92h.84c5.34 0 5.34-1.27 5.34-4.65V36.3c0-2.14-1.33-3.05-4.45-3.05h-1.72v-5l.88.05 2.33.14c2.26.15 4.6.3 6.89.3s5-.1 7.61-.19c2.33-.08 4.52-.16 6.16-.16 5.27 0 9.27 1.29 11.89 3.83a10.62 10.62 0 0 1 3.15 7.71A12.69 12.69 0 0 1 408 50.68c3.6 1.21 6.67 2.71 8.77 6.75a12.89 12.89 0 0 1 1.5 6 14 14 0 0 1-5.72 10.76C410 76 406.61 77 402.25 77c-3 0-5.55-.12-8-.23s-4.55-.21-7-.21c-2.77 0-5.5.22-8.39.45l-2.22.17zM391.61 54v15.22c0 1.11 0 1.39.44 1.63.72.43 2.47.63 5.52.63h2.21c7.93 0 8.78-5.67 8.78-8.1 0-6-4.49-9.43-12.31-9.43h-4.64zm0-5.21h6.14c2.79 0 4.82-.41 6.29-2.48a8.57 8.57 0 0 0 1.26-4.82c0-6.74-4.84-7.75-7.72-7.75h-3.35c-2.61 0-2.61.58-2.61 1.73v13.27zM422.42 77.16v-4.88h.84c4.61 0 5.43-.75 5.43-2.88V36.57c0-3.15-.66-3.59-5.43-3.59h-.84v-4.85l.92.09a97.16 97.16 0 0 0 9.89.53c3.41 0 7-.27 10.44-.53l.9-.07v5.1h-.84c-4.57 0-5.43.56-5.43 3.5v33.18a1 1 0 0 0 1.19 1.2h5.65c8.85 0 11.07-1.75 12.5-9.84l.12-.69h5.81l-.23 1a125.34 125.34 0 0 0-2.64 14.79l-.1.75h-.75c-5.95-.17-12.69-.36-19.3-.36-5.18 0-9.63.13-14.79.29zM567.78 77.21v-4.85H571c.93 0 1.81-.42 1.81-.75a2.87 2.87 0 0 0-.29-1l-.09-.21-3.95-10.77h-14.4l-4.28 10.51-.06.19a3.21 3.21 0 0 0-.24 1c0 .3 0 .36.45.48a21.91 21.91 0 0 0 4.54.27h.84v5.1l-.9-.06-1.74-.12c-2-.15-4-.31-6.05-.31s-4.25.16-6.34.31l-1.89.13-.89.06v-4.76l.77-.06c4-.33 4.45-.68 5.91-4.17L561.71 27h4.11L583 69.09c1.19 3 3 3.27 5 3.27h.84v4.85l-.91-.07c-3.61-.3-6.8-.44-9.73-.44s-5.95.15-9.46.44zm-11.53-23h10.07c-1.6-4-3.24-8.3-5-13.14zM346.35 77.75c-6.51 0-11.38-1.56-14.49-4.64C329.27 70.55 328 67 328 62.67V36.39c0-2.89-1.36-3.15-5.25-3.15h-.84v-5.1l.9.07c3.59.29 7 .44 10 .44s6.5-.14 10.43-.44l.9-.07v5.1h-.84c-5.51 0-5.78.54-5.78 2.26v26.38c0 5.91 3.93 9.16 11.07 9.16 3.54 0 6.1-.84 7.84-2.57 1.94-1.94 2.89-5 2.89-9.33V37.37c0-1.77-.28-2.71-1-3.24s-2.26-.87-4.81-.87h-.84v-5.13l.91.09c2.76.26 5.61.53 8.39.53s5.72-.27 8.48-.53l.91-.09v5.12h-.84c-4 0-5.07 1-5.07 5.09V60.2c.01 11.48-6.6 17.55-19.1 17.55zM467.17 77.19V72.1h1.45c3.94 0 4.73-1 4.73-2.7V36.21c0-2.19-1.15-2.79-5.35-2.79h-.84v-5.3l.92.09c3.45.35 7 .7 10.51.7a91 91 0 0 0 9.71-.7l.93-.1v5.31h-.84c-5.18 0-5.43 1.36-5.43 3.76V69.4c0 1.75.87 2.7 5.43 2.7h.84v5.08h-.88c-3.26-.17-6.95-.36-10.55-.36-3.32 0-6.74.19-9.75.36zM516.51 77.84a21.37 21.37 0 0 1-16.84-7.45 26.41 26.41 0 0 1-5.88-17.19c0-3.48.55-10.17 4.22-15.82 4.18-6.44 11.09-9.7 20.54-9.7a49.93 49.93 0 0 1 16.6 3.23l.54.19v.57c.18 7.1.31 13.23.31 13.33v.9l-5.83-.61-.08-.66c-1-7.86-2.37-11.3-11.08-11.3-13.88 0-15 13.51-15 17.66 0 6.68 1.7 12.09 4.91 15.64a13.86 13.86 0 0 0 10.4 4.58c5.59 0 9.92-2.65 12.86-7.89l.36-.64 5.09 2-.45.83c-4.38 8.08-11.53 12.33-20.67 12.33z"/></svg>