<?xml version="1.0" encoding="utf-8"?>
<!-- Generator: Adobe Illustrator 16.0.0, SVG Export Plug-In . SVG Version: 6.00 Build 0)  -->
<!DOCTYPE svg PUBLIC "-//W3C//DTD SVG 1.1//EN" "http://www.w3.org/Graphics/SVG/1.1/DTD/svg11.dtd">
<svg version="1.1" id="Layer_1" xmlns="http://www.w3.org/2000/svg" xmlns:xlink="http://www.w3.org/1999/xlink" x="0px" y="0px"
	 width="3413px" height="844.5px" viewBox="0 0 3413 844.5" enable-background="new 0 0 3413 844.5" xml:space="preserve">
<g>
	<polygon points="3413,844.4 3413,746.8 0,746.8 0,844.5 1594.4,844.5 1594.4,844.4 	"/>
	<g>
		<path d="M396,268.8c-34-38.4-58.6-56.5-110.8-56.5c-36.9,0-67.3,13.8-92.7,40.5c-25.3,26.8-37.7,60.8-37.7,101.4
			c0,41.3,12.3,76,37.7,102.8c25.3,26.8,56.5,39.8,94.1,39.8c57.2,0,88.3-21.7,123.8-70.2l79.6,88.3
			c-50.7,67.3-122.4,101.4-214.3,101.4c-74.6,0-136.1-24.6-184.6-74.6c-48.5-50-72.4-113-72.4-187.5c0-74.6,24.6-136.1,73.9-186.1
			c50-50,111.5-75.3,186.1-75.3c81.8,0,149.2,30.4,200.6,90.5L396,268.8z"/>
		<path d="M627.6,100.8v181.7c16.7-23.2,50.7-37.7,85.4-37.7c84.7,0,136.1,55,136.1,157.1v206.4H723.9v-194
			c0-36.9-15.2-55.8-45.6-55.8c-34.8,0-50.7,18.8-50.7,78.9v170.9H502.3V100.8H627.6z"/>
		<path d="M1228,459.9H997.8c6.5,28.2,34,44.2,63,44.2c34,0,59.4-12.3,76-36.9l82.5,78.2c-26.8,41.3-86.9,71-157.1,71
			c-55,0-100.6-16.7-136.8-49.2s-54.3-77.5-54.3-133.9c0-55.8,16.7-100.6,50.7-135.4c34-35.5,78.2-52.9,131.8-52.9
			c55.8,0,99.2,17.4,129.6,52.9c30.4,35.5,45.6,78.2,45.6,128.9L1228,459.9z M1000,389.7h99.2c-2.2-23.2-18.8-40.5-48.5-40.5
			C1023.9,349.1,1005,365.8,1000,389.7z"/>
		<path d="M1593.7,543.2c-35.5,48.5-87.6,73.1-156.4,73.1c-52.9,0-97.7-17.4-135.4-52.1c-36.9-34.8-55.8-78.9-55.8-133.2
			c0-54.3,18.8-98.5,55.8-133.2c37.7-35.5,82.5-52.9,135.4-52.9c66.6,0,118,23.2,153.5,68.8l-81.1,76.7
			c-18.1-22.4-40.5-33.3-67.3-33.3c-37.7,0-71,31.1-71,73.9s31.1,73.1,69.5,73.1c30.4,0,54.3-13,71.7-38.4L1593.7,543.2z"/>
		<path d="M1607.6,608.3V100.8h126v243.3l73.9-90.5h147L1831.3,402l132.5,206.4h-139l-73.1-118l-18.1,23.2v94.8H1607.6z"/>
		<path d="M2203.3,271.7V100.8h123.8v507.6h-122.4v-23.9c-22.4,21-51.4,31.9-88.3,31.9c-51.4,0-93.4-17.4-127.4-52.9
			c-33.3-35.5-50-79.6-50-132.5c0-52.9,16.7-97,50-132.5c33.3-35.5,74.6-53.6,123.8-53.6C2147.6,244.9,2178,253.6,2203.3,271.7z
			 M2204.8,430.9c0-42.7-30.4-74.6-70.2-74.6s-70.2,31.9-70.2,74.6s30.4,73.1,70.2,73.1C2175.1,504.1,2204.8,473.7,2204.8,430.9z"/>
		<path d="M2705.1,459.9h-230.2c6.5,28.2,34,44.2,63,44.2c34,0,59.4-12.3,76-36.9l82.5,78.2c-26.8,41.3-86.9,71-157.1,71
			c-55,0-100.6-16.7-136.8-49.2c-36.2-32.6-54.3-77.5-54.3-133.9c0-55.8,16.7-100.6,50.7-135.4c34-35.5,78.2-52.9,131.8-52.9
			c55.8,0,99.2,17.4,129.6,52.9s45.6,78.2,45.6,128.9L2705.1,459.9z M2477,389.7h99.2c-2.2-23.2-18.8-40.5-48.5-40.5
			C2500.9,349.1,2482.1,365.8,2477,389.7z"/>
		<path d="M2852.8,344.8c-7.2,2.9-10.9,6.5-10.9,10.9c0,5.8,4.3,9.4,13,11.6l63.7,10.9c65.9,10.9,103.5,50,103.5,111.5
			c0,36.9-14.5,67.3-44.2,91.2c-29,23.9-66.6,35.5-112.2,35.5c-70.2,0-123.1-20.3-159.3-60.8l71-76c24.6,24.6,56.5,36.9,94.8,36.9
			c5.1,0,10.1-0.7,14.5-1.4c7.2-1.4,10.9-5.1,10.9-11.6s-4.3-10.9-13.8-13l-52.1-10.1c-68.8-13.8-112.2-56.5-112.2-117.3
			c0-35.5,14.5-63.7,43.4-85.4c29-21.7,63-32.6,102.8-32.6c63.7,0,112.9,17.4,147,51.4l-67.3,72.4c-21-16.7-47.8-25.3-78.9-25.3
			C2861.5,343.3,2857.1,344.1,2852.8,344.8z"/>
		<path d="M3045.8,608.3V100.8h126v243.3l73.9-90.5h147L3269.5,402L3402,608.3h-139l-73.1-118l-18.1,23.2v94.8H3045.8z"/>
	</g>
</g>
</svg>
